<svg width="16" height="16" viewBox="0 0 16 16" fill="none" xmlns="http://www.w3.org/2000/svg">
<path d="M15.6969 5.9625C15.8187 5.86563 16 5.95625 16 6.10938V12.5C16 13.3281 15.3281 14 14.5 14H1.5C0.671875 14 0 13.3281 0 12.5V6.1125C0 5.95625 0.178125 5.86875 0.303125 5.96562C1.00312 6.50937 1.93125 7.2 5.11875 9.51562C5.77813 9.99687 6.89062 11.0094 8 11.0031C9.11563 11.0125 10.25 9.97813 10.8844 9.51562C14.0719 7.2 14.9969 6.50625 15.6969 5.9625ZM8 10C8.725 10.0125 9.76875 9.0875 10.2937 8.70625C14.4406 5.69688 14.7562 5.43437 15.7125 4.68437C15.8937 4.54375 16 4.325 16 4.09375V3.5C16 2.67188 15.3281 2 14.5 2H1.5C0.671875 2 0 2.67188 0 3.5V4.09375C0 4.325 0.10625 4.54062 0.2875 4.68437C1.24375 5.43125 1.55938 5.69688 5.70625 8.70625C6.23125 9.0875 7.275 10.0125 8 10Z" fill="#CCCCCC"/>
</svg>
