<svg width="16" height="16" viewBox="0 0 16 16" fill="none" xmlns="http://www.w3.org/2000/svg">
<path d="M16 7.66667C16 7.01028 15.6403 6.44333 15.1111 6.13556V1.88917C15.1111 1.64611 14.9172 1 14.2222 1C14.0244 1 13.8281 1.06611 13.6672 1.195L11.3053 3.08472C10.1189 4.03306 8.62944 4.55556 7.11111 4.55556H1.77778C0.795833 4.55556 0 5.35139 0 6.33333V9C0 9.98194 0.795833 10.7778 1.77778 10.7778H2.71389C2.67528 11.0689 2.65333 11.365 2.65333 11.6667C2.65333 12.7714 2.91056 13.8153 3.36333 14.7483C3.5075 15.0453 3.82222 15.2222 4.15222 15.2222H6.21556C6.93917 15.2222 7.37361 14.3933 6.935 13.8178C6.47944 13.22 6.20861 12.4744 6.20861 11.6667C6.20861 11.3581 6.25361 11.0614 6.33111 10.7778H7.11111C8.62944 10.7778 10.1189 11.3003 11.305 12.2486L13.6669 14.1383C13.8245 14.2644 14.0202 14.3332 14.2219 14.3333C14.9142 14.3333 15.1108 13.7006 15.1108 13.4444V9.19806C15.6403 8.89 16 8.32306 16 7.66667ZM13.3333 11.595L12.4153 10.8606C10.9153 9.66056 9.03111 9 7.11111 9V6.33333C9.03111 6.33333 10.9153 5.67278 12.4153 4.47278L13.3333 3.73833V11.595Z" fill="#CCCCCC"/>
</svg>
