<svg width="16" height="16" viewBox="0 0 16 16" fill="none" xmlns="http://www.w3.org/2000/svg">
<path d="M14 6V2.41406C14 2.14875 13.8947 1.89469 13.7072 1.70687L12.2928 0.292812C12.1053 0.105312 11.8509 0 11.5856 0H3C2.44781 0 2 0.447812 2 1V6C0.895313 6 0 6.89531 0 8V11.5C0 11.7762 0.22375 12 0.5 12H2V15C2 15.5522 2.44781 16 3 16H13C13.5522 16 14 15.5522 14 15V12H15.5C15.7762 12 16 11.7762 16 11.5V8C16 6.89531 15.1047 6 14 6ZM12 14H4V11H12V14ZM12 7H4V2H10V3.5C10 3.77625 10.2238 4 10.5 4H12V7ZM13.5 9.25C13.0859 9.25 12.75 8.91406 12.75 8.5C12.75 8.08562 13.0859 7.75 13.5 7.75C13.9141 7.75 14.25 8.08562 14.25 8.5C14.25 8.91406 13.9141 9.25 13.5 9.25Z" fill="#CCCCCC"/>
</svg>
