<svg width="16" height="16" viewBox="0 0 16 16" fill="none" xmlns="http://www.w3.org/2000/svg">
<g clip-path="url(#clip0)">
<path d="M15.8657 3.40976C15.7957 3.12757 15.4425 3.03194 15.2369 3.23757L12.9132 5.56132L10.7919 5.20788L10.4385 3.08663L12.7622 0.762881C12.9691 0.556006 12.8694 0.203506 12.5854 0.132881C11.1047 -0.233994 9.47441 0.161318 8.31723 1.31819C7.07848 2.55694 6.73754 4.35257 7.25316 5.9182L0.584727 12.5866C-0.196211 13.3676 -0.196211 14.6338 0.584727 15.4148C1.36566 16.1957 2.63191 16.1957 3.41285 15.4148L10.0757 8.75195C11.6419 9.27413 13.4341 8.92945 14.681 7.68257C15.8394 6.52413 16.2341 4.89132 15.8657 3.40976ZM1.9991 14.7504C1.58504 14.7504 1.2491 14.4144 1.2491 14.0004C1.2491 13.586 1.58504 13.2504 1.9991 13.2504C2.41316 13.2504 2.7491 13.586 2.7491 14.0004C2.7491 14.4144 2.41316 14.7504 1.9991 14.7504Z" fill="#CCCCCC"/>
</g>
<defs>
<clipPath id="clip0">
<rect width="16" height="16" fill="white"/>
</clipPath>
</defs>
</svg>
