<svg width="37" height="24" viewBox="0 0 37 24" fill="none" xmlns="http://www.w3.org/2000/svg">
<rect x="0.499512" y="0.00012207" width="35.9998" height="23.9998" rx="4" fill="white"/>
<path d="M7.15947 13.425V19.545H13.3544L13.9994 18.63L14.6294 19.545H18.4169V18.165H18.8369C19.2182 18.1683 19.5976 18.1127 19.9619 18V19.545H22.5344V18.45L23.4044 19.545H35.1193C35.6008 19.5534 36.0746 19.4232 36.4843 19.17V21.75C36.1411 23.0791 34.9395 24.0058 33.5668 24H3.49949C1.84265 24 0.499512 22.6568 0.499512 21V11.5501H2.2095L2.562 10.6351H3.40199L3.74699 11.5501H17.5019V10.4551L18.3719 11.5501H21.9794V10.9951C22.5084 11.3716 23.1452 11.5663 23.7944 11.5501H25.9468L26.2918 10.6351H27.1318L27.4993 11.5501H31.1743V10.3651L31.9243 11.5501H34.4593V5.43009H31.7668V6.67509L30.9643 5.43009H28.6093V7.00508L27.8593 5.43009H23.8544C23.1768 5.41046 22.5137 5.62797 21.9794 6.04509V5.43009H8.74946L8.29946 6.75009L7.84946 5.40009H4.84948V6.97508L4.14449 5.40009H1.6995L0.499512 8.25008V3.00011C0.499512 1.34327 1.84265 0.000129559 3.49949 0.000129559H33.5668C34.9451 -0.0126109 36.1547 0.915501 36.4993 2.25011V13.425H14.6444L13.9994 14.325L13.3694 13.425H7.15947Z" fill="#296DB6"/>
<path fill-rule="evenodd" clip-rule="evenodd" d="M16.49 14.4H18.8225V14.37C19.2109 14.3374 19.5946 14.4732 19.8759 14.7431C20.1572 15.0129 20.3089 15.3906 20.2925 15.78C20.3021 16.1741 20.1445 16.5538 19.8587 16.8254C19.5729 17.0969 19.1856 17.2348 18.7925 17.205H17.5175V18.6H16.49V14.4ZM14.5999 16.5L16.2949 14.4H15.0499L13.9999 15.705L12.9574 14.37H11.6824L13.3999 16.5L11.7499 18.6H12.9799L13.9999 17.25L15.0199 18.615H16.3099L14.5999 16.5ZM11.5322 15.2704V14.3704H8.13477V18.6003H11.5322V17.7003H9.15476V16.9503H11.4872V16.0354H9.15476V15.2854L11.5322 15.2704ZM18.7322 16.335H17.5172V15.27H18.7322C19.018 15.27 19.2497 15.5017 19.2497 15.7875C19.2497 16.0733 19.018 16.305 18.7322 16.305V16.335ZM24.6273 15.5925C24.7143 16.3298 24.1871 16.998 23.4498 17.085L24.8673 18.6H23.5848L22.3248 17.1H21.8598V18.6H20.8398V14.415H23.1348C23.8721 14.328 24.5403 14.8552 24.6273 15.5925ZM23.0447 16.245H21.8597V15.27H23.0447C23.178 15.2526 23.3124 15.2939 23.413 15.383C23.5137 15.4722 23.5708 15.6005 23.5697 15.735C23.5734 15.8703 23.517 16.0003 23.4157 16.09C23.3144 16.1797 23.1786 16.22 23.0447 16.2V16.245ZM28.5197 14.415V15.315L26.1422 15.285V16.035H28.4597V16.95H26.1422V17.7H28.5197V18.6H25.1073V14.415H28.5197ZM31.3474 16.065H30.3649C30.2131 16.0955 30.0578 16.0315 29.9716 15.9027C29.8855 15.774 29.8855 15.606 29.9716 15.4773C30.0578 15.3486 30.2131 15.2845 30.3649 15.315H32.1874L32.5924 14.415H30.3949C30.021 14.3717 29.6466 14.4919 29.3679 14.7448C29.0891 14.9977 28.9331 15.3587 28.9399 15.735C28.9171 16.0852 29.0517 16.4273 29.307 16.6681C29.5623 16.9088 29.9117 17.0232 30.2599 16.98H31.2499C31.4018 16.9495 31.557 17.0136 31.6432 17.1423C31.7293 17.271 31.7293 17.439 31.6432 17.5677C31.557 17.6964 31.4018 17.7605 31.2499 17.73H29.0599V18.63H31.2499C31.6279 18.6609 32.0007 18.5268 32.2724 18.2623C32.5441 17.9978 32.6882 17.6286 32.6674 17.25C32.6863 16.9033 32.5494 16.5664 32.2939 16.3312C32.0385 16.0961 31.6913 15.9875 31.3474 16.035V16.065ZM36.0948 15.315H34.2724L34.2499 15.285C34.098 15.2545 33.9427 15.3186 33.8566 15.4473C33.7704 15.576 33.7704 15.744 33.8566 15.8727C33.9427 16.0014 34.098 16.0655 34.2499 16.035H35.2698C35.7887 15.9816 36.2836 16.2654 36.4998 16.74V17.745C36.2933 18.3168 35.7248 18.6752 35.1198 18.615H32.9674V17.715H35.1348C35.2867 17.7455 35.442 17.6814 35.5281 17.5527C35.6143 17.424 35.6143 17.256 35.5281 17.1273C35.442 16.9985 35.2867 16.9345 35.1348 16.965H34.1674C33.8191 17.0082 33.4697 16.8938 33.2144 16.6531C32.9592 16.4123 32.8246 16.0702 32.8474 15.72C32.8405 15.3437 32.9965 14.9827 33.2753 14.7298C33.5541 14.4769 33.9285 14.3567 34.3024 14.4H36.4998L36.0948 15.315Z" fill="#296DB6"/>
<path fill-rule="evenodd" clip-rule="evenodd" d="M19.5867 7.71004C19.6031 8.38615 19.1031 8.96408 18.4317 9.04503L19.8417 10.605H18.5667L17.3067 9.10503H16.8417V10.605H15.7992V6.37505H18.0867C18.4689 6.32493 18.854 6.44338 19.1419 6.69964C19.4298 6.95589 19.5921 7.32464 19.5867 7.71004ZM8.44945 8.82001L9.27444 6.37503H10.9169V10.605H9.92694V7.83002V7.18503L9.73194 7.83002L8.74944 10.605H7.84945L6.88946 7.83002L6.67946 7.18503V7.83002V10.605H5.68196V6.37503H7.33945L8.17945 8.82001L8.31445 9.28501L8.44945 8.82001ZM3.67199 6.37595H2.337L0.499512 10.6059H1.6095L1.9995 9.75093H3.97199L4.33199 10.6359H5.48698L3.67199 6.37595ZM2.28428 8.89504L2.69678 7.90505L2.96678 7.24505L3.23677 7.90505L3.64177 8.89504H2.28428ZM15.1243 7.27502V6.37503H11.7493V10.605H15.1243V9.70501H12.7468V8.95501H15.0643V8.04002H12.7468V7.29002L15.1243 7.27502ZM18.0268 8.20503H16.8418V7.27503H18.0268C18.1596 7.26018 18.2925 7.30227 18.3926 7.3909C18.4927 7.47952 18.5505 7.60638 18.5518 7.74003C18.5555 7.87532 18.4991 8.00531 18.3978 8.09504C18.2965 8.18478 18.1606 8.22505 18.0268 8.20503ZM20.0816 10.605V6.37503H21.1091V10.605H20.0816ZM23.8316 7.29004H24.9341V6.37505H23.7491C23.1913 6.33979 22.646 6.55032 22.2565 6.95127C21.8671 7.35223 21.6726 7.90347 21.7241 8.46003V8.52003C21.6615 9.06863 21.8438 9.61695 22.2225 10.0188C22.6012 10.4206 23.1378 10.6351 23.6891 10.605H23.7491L24.1616 9.70502H23.8241C23.5129 9.72102 23.2106 9.59791 22.9991 9.36901C22.7875 9.1401 22.6886 8.82906 22.7291 8.52003V8.46003C22.6935 8.15341 22.7945 7.84664 23.0055 7.62126C23.2164 7.39589 23.5158 7.27474 23.8241 7.29004H23.8316ZM26.0667 6.37503H27.4166L29.2241 10.635H28.0691L27.7091 9.75001H25.7067L25.3467 10.605H24.2517L26.0667 6.37503ZM26.0366 8.89504L26.4266 7.90505L26.6966 7.24505L26.9516 7.90505L27.3566 8.89504H26.0366ZM32.4567 8.62502V6.37503H33.4992V10.605H32.2617L30.6942 8.22002L30.4242 7.75502V8.25002V10.635H29.4192V6.40503H30.6717L32.1717 8.65502L32.4567 9.13501V8.62502Z" fill="#296DB6"/>
</svg>
