<svg xmlns="http://www.w3.org/2000/svg" width="43" height="43" fill="none" viewBox="0 0 43 43">
    <g fill="#F0AD4E" clip-path="url(#clip0)">
        <path d="M26.875 37.625H.672c-.403 0-.672-.269-.672-.672V6.047c0-.403.269-.672.672-.672h2.687v1.344H1.344V36.28h25.531v1.344zM43 29.563h-1.344V6.718h-2.015V5.375h2.687c.403 0 .672.269.672.672v23.515z"/>
        <path d="M21.5 37.625c-.202 0-.336-.067-.47-.202l-2.486-2.486H3.359c-.403 0-.671-.268-.671-.671V3.359c0-.403.268-.671.671-.671h15.454c.201 0 .335.067.47.201L21.5 5.106l2.217-2.217c.135-.134.269-.201.47-.201h15.454c.403 0 .672.268.672.671v26.203h-1.344V4.032H24.456L21.97 6.516c-.268.269-.672.269-.94 0l-2.486-2.486H4.03v29.563h14.782c.201 0 .335.067.47.201l2.217 2.218 2.217-2.218c.135-.134.269-.201.47-.201h2.688v1.343h-2.419l-2.486 2.486c-.134.135-.268.202-.47.202z"/>
        <path d="M21.518 37.638c.201 0 .335-.068.47-.202l2.486-2.486h15.184c.403 0 .672-.269.672-.672V3.372c0-.403-.269-.672-.672-.672H24.205c-.201 0-.336.067-.47.202l-2.217 2.217L19.3 2.902c-.134-.135-.268-.202-.47-.202H3.377c-.403 0-.672.269-.672.672v26.203H4.05V4.044H18.56l2.486 2.486c.269.268.672.268.94 0l2.487-2.486h14.512v29.562h-14.78c-.203 0-.337.067-.471.202l-2.217 2.217-2.218-2.217c-.134-.135-.268-.202-.47-.202h-2.687v1.344h2.418l2.486 2.486c.135.134.269.202.47.202z"/>
        <path d="M22.172 6.047h-1.344v30.906h1.344V6.047zM19.484 18.813H5.375v1.343h14.11v-1.343zM19.484 21.5H5.375v1.344h14.11V21.5zM19.484 24.188H5.375v1.343h14.11v-1.343zM19.484 26.875H5.375v1.344h14.11v-1.344zM19.484 29.563H5.375v1.343h14.11v-1.343zM18.813 17.469H6.046c-.403 0-.672-.269-.672-.672v-6.719c0-.403.269-.672.672-.672h12.765c.404 0 .672.269.672.672v6.719c0 .403-.268.672-.672.672zM6.719 16.125H18.14V10.75H6.719v5.375zM37.625 6.719h-14.11v1.343h14.11V6.72zM37.625 9.406h-14.11v1.344h14.11V9.406zM37.625 12.094h-14.11v1.344h14.11v-1.344zM37.625 22.844h-14.11v1.343h14.11v-1.343zM37.625 25.531h-14.11v1.344h14.11v-1.344zM37.625 28.219h-14.11v1.343h14.11V28.22zM26.203 17.469H24.86v1.343h1.344V17.47zM33.594 17.469h-6.047v1.343h6.047V17.47zM36.281 17.469h-1.343v1.343h1.343V17.47zM19.484 6.719H5.375v1.343h14.11V6.72z"/>
        <path d="M16.125 37.63h26.203c.403 0 .672-.269.672-.672V6.052c0-.403-.269-.672-.672-.672h-2.687v1.344h2.015v29.562H16.125v1.344z"/>
    </g>
    <defs>
        <clipPath id="clip0">
            <path fill="#fff" d="M0 0H43V43H0z"/>
        </clipPath>
    </defs>
</svg>
