<svg width="46" height="46" viewBox="0 0 46 46" fill="none" xmlns="http://www.w3.org/2000/svg">
<path d="M44.9905 18.3105L40.5843 13.9043L32.0122 5.33222L27.606 0.925984C27.244 0.56402 26.6567 0.563678 26.2944 0.925984L21.1673 6.05306C20.8054 6.41503 20.805 7.00232 21.1673 7.36462L25.5736 11.7709L26.1996 12.3968L2.47398 36.1224C2.11202 36.4844 2.11167 37.0717 2.47398 37.434L8.48251 43.4425C8.84447 43.8045 9.43177 43.8048 9.79407 43.4425L33.5196 19.7169L34.1456 20.3429L38.5522 24.7495C38.9142 25.1115 39.5015 25.1118 39.8638 24.7495L44.9909 19.6224C45.3528 19.2598 45.3528 18.6728 44.9905 18.3105ZM34.8014 18.3756L34.1754 17.7496L28.1666 11.7407L27.5406 11.1147L31.3561 7.29922L38.6166 14.5597L34.8011 18.3752L34.8014 18.3756ZM26.9502 2.89333L30.0449 5.988L26.2293 9.80351L23.1347 6.70884L26.9502 2.89333V2.89333ZM6.74426 34.4746L7.91953 33.2993L11.145 39.4684L9.96975 40.6437L6.74426 34.4746ZM13.0182 28.2007L16.2437 34.3698L15.0684 35.5451L11.8429 29.3759L13.0182 28.2007ZM14.3924 26.8264L15.5677 25.6512L18.7932 31.8203L17.6179 32.9956L14.3924 26.8264ZM16.9416 24.2773L18.1168 23.102L21.3423 29.2711L20.1671 30.4464L16.9416 24.2773ZM22.7166 27.8969L19.4911 21.7278L20.6663 20.5525L23.8922 26.7213L22.7166 27.8969ZM10.469 30.7498L13.6945 36.9189L12.5192 38.0942L9.29376 31.9251L10.469 30.7498ZM25.2664 25.3471L22.0406 19.1783L23.2158 18.003L26.4417 24.1718L25.2664 25.3471ZM27.8156 22.7979L24.5897 16.6291L25.7653 15.4535L28.9908 21.6226L27.8156 22.7979ZM5.37037 35.8485L7.40689 39.7438L4.44098 36.7779L5.37037 35.8485ZM30.3651 20.2484L27.1396 14.0793L27.5108 13.7081L32.2081 18.4054L30.3651 20.2484ZM39.2077 22.7818L36.1126 19.6868L39.9282 15.8713L43.0232 18.9663L39.2077 22.7818Z" fill="#AFAFAF"/>
</svg>
