<svg width="14" height="14" viewBox="0 0 14 14" fill="none" xmlns="http://www.w3.org/2000/svg">
<path d="M11.4126 2.238L11.4126 2.23799C10.9878 1.86146 10.338 1.90011 9.96094 2.32449C9.58385 2.74891 9.62261 3.39838 10.0475 3.77502C11.0299 4.64593 11.5933 5.89721 11.5933 7.20786C11.5933 9.73739 9.53287 11.7958 7.00008 11.7958C4.4673 11.7958 2.40682 9.73739 2.40682 7.20786C2.40682 5.8842 2.97955 4.62477 3.97828 3.75246L3.97828 3.75246C4.40587 3.37898 4.44952 2.72985 4.0755 2.30262C3.70163 1.87549 3.05206 1.83212 2.62452 2.2055L2.62451 2.20551C1.1791 3.46791 0.35 5.29119 0.35 7.20786C0.35 10.871 3.33319 13.8506 7.00003 13.8506C10.6669 13.8506 13.6501 10.871 13.6501 7.20786C13.6501 5.30983 12.8346 3.49852 11.4126 2.238Z" fill="#EC6A5E" stroke="#EC6A5E" stroke-width="0.3"/>
<path d="M6.99947 6.88501C7.56726 6.88501 8.02786 6.42518 8.02786 5.85762V1.17818C8.02786 0.610619 7.56726 0.150781 6.99947 0.150781C6.43169 0.150781 5.97109 0.610619 5.97109 1.17818V5.85762C5.97109 6.42524 6.4317 6.88501 6.99947 6.88501Z" fill="#EC6A5E" stroke="#EC6A5E" stroke-width="0.3"/>
</svg>
