<svg width="14" height="14" viewBox="0 0 14 14" fill="none" xmlns="http://www.w3.org/2000/svg">
<path d="M11.4126 2.23641L11.4126 2.23641C10.9878 1.85987 10.338 1.89852 9.96094 2.3229C9.58385 2.74732 9.62261 3.39679 10.0475 3.77343C11.0299 4.64434 11.5933 5.89562 11.5933 7.20627C11.5933 9.7358 9.53287 11.7942 7.00008 11.7942C4.4673 11.7942 2.40682 9.7358 2.40682 7.20627C2.40682 5.88261 2.97955 4.62318 3.97828 3.75088L3.97828 3.75087C4.40587 3.3774 4.44952 2.72827 4.07551 2.30105C3.70164 1.8739 3.05206 1.83053 2.62452 2.20391L2.62451 2.20392C1.1791 3.46633 0.35 5.2896 0.35 7.20627C0.35 10.8694 3.33319 13.849 7.00003 13.849C10.6669 13.849 13.6501 10.8694 13.6501 7.20627C13.6501 5.30824 12.8346 3.49694 11.4126 2.23641Z" fill="#72A365" stroke="#72A365" stroke-width="0.3"/>
<path d="M7.00021 6.88428C7.56799 6.88428 8.02859 6.42444 8.02859 5.85689V1.17744C8.02859 0.609886 7.56799 0.150049 7.00021 0.150049C6.43242 0.150049 5.97183 0.609887 5.97183 1.17744V5.85689C5.97183 6.42451 6.43243 6.88428 7.00021 6.88428Z" fill="#72A365" stroke="#72A365" stroke-width="0.3"/>
</svg>
