<svg xmlns="http://www.w3.org/2000/svg" width="16" height="16" fill="none" viewBox="0 0 16 16">
    <g clip-path="url(#clip0)">
        <path fill="#CCC" d="M15.866 3.41c-.07-.282-.423-.378-.629-.172L12.913 5.56l-2.12-.353-.354-2.121L12.762.763c.207-.207.108-.56-.176-.63-1.481-.367-3.111.028-4.269 1.185-1.238 1.239-1.58 3.035-1.064 4.6L.585 12.587c-.781.78-.781 2.047 0 2.828.78.78 2.047.78 2.828 0l6.663-6.663c1.566.522 3.358.177 4.605-1.07 1.159-1.158 1.553-2.79 1.185-4.272zM1.999 14.75c-.414 0-.75-.336-.75-.75s.336-.75.75-.75.75.336.75.75-.336.75-.75.75z"/>
    </g>
    <defs>
        <clipPath id="clip0">
            <path fill="#fff" d="M0 0H16V16H0z"/>
        </clipPath>
    </defs>
</svg>
