<svg width="37" height="24" viewBox="0 0 37 24" fill="none" xmlns="http://www.w3.org/2000/svg">
<rect x="0.499023" width="35.9998" height="23.9998" rx="4" fill="white"/>
<path fill-rule="evenodd" clip-rule="evenodd" d="M3.499 0H33.4988C35.1556 0 36.4988 1.34314 36.4988 2.99998V20.9999C36.4988 22.6567 35.1556 23.9998 33.4988 23.9998H3.499C1.84216 23.9998 0.499023 22.6567 0.499023 20.9999V2.99998C0.499023 1.34314 1.84216 0 3.499 0ZM34.9988 2.99998C34.9988 2.17156 34.3273 1.49999 33.4988 1.49999H3.49905C2.67062 1.49999 1.99906 2.17156 1.99906 2.99998V20.9999C1.99906 21.8283 2.67062 22.4999 3.49905 22.4999H33.4988C34.3273 22.4999 34.9988 21.8283 34.9988 20.9999V2.99998Z" fill="#0779BE"/>
<path fill-rule="evenodd" clip-rule="evenodd" d="M10.3467 15.5474C10.3467 16.0349 10.0617 17.2499 8.32917 17.2499H6.97168V17.1224C6.97828 17.1217 6.98481 17.121 6.99126 17.1204C7.27087 17.0919 7.41418 17.0773 7.41418 16.7474V14.3849C7.41418 13.9649 7.18918 13.9649 6.97168 13.9649V13.8374H8.38917C8.87889 13.7895 9.36666 13.9459 9.73724 14.2696C10.1078 14.5933 10.3283 15.0557 10.3467 15.5474ZM8.27687 14.0174C8.14948 14.01 8.02177 14.01 7.89437 14.0174L7.86437 16.6724C7.86437 17.0474 8.13437 17.0924 8.37437 17.0924C8.76826 17.1077 9.14934 16.951 9.41855 16.663C9.68777 16.3751 9.81854 15.9844 9.77686 15.5924C9.79742 15.1817 9.64851 14.7807 9.36495 14.4829C9.08139 14.1852 8.68804 14.0169 8.27687 14.0174Z" fill="#211E1F"/>
<path d="M11.5615 17.2499V17.1224H11.479C11.3365 17.1224 11.2315 17.1224 11.2315 16.9574V15.0824V15.0149C11.2019 15.0081 11.1711 15.0081 11.1415 15.0149C10.9699 15.0844 10.7946 15.1445 10.6165 15.1949V15.2699C10.7965 15.3674 10.8715 15.3974 10.8715 15.6149V16.9349C10.8715 17.0999 10.774 17.0999 10.639 17.0999H10.5415V17.2499H11.5915H11.5615Z" fill="#211E1F"/>
<path d="M11.0366 14.2949C11.1015 14.295 11.1637 14.2686 11.209 14.222C11.2542 14.1754 11.2786 14.1124 11.2766 14.0474C11.2725 13.9178 11.1662 13.8149 11.0366 13.8149C10.904 13.8149 10.7966 13.9224 10.7966 14.0549C10.7966 14.1875 10.904 14.2949 11.0366 14.2949Z" fill="#211E1F"/>
<path d="M14.1489 17.1524H14.0664C13.9239 17.1524 13.8189 17.1524 13.8189 16.9874V15.7499C13.8189 15.3749 13.6764 15.0674 13.2564 15.0674C12.9433 15.0929 12.6476 15.2222 12.4164 15.4349V15.1199C12.4164 15.0824 12.4164 15.0674 12.4164 15.0674C12.2058 15.1567 11.9905 15.2343 11.7714 15.2999V15.3974C11.9964 15.4874 12.0564 15.5399 12.0564 15.7199V17.0099C12.0564 17.1749 11.9589 17.1749 11.8164 17.1749H11.7339V17.2499H12.7764V17.1224H12.6864C12.5514 17.1224 12.4464 17.1224 12.4464 16.9574V15.5474C12.6105 15.421 12.8041 15.3384 13.0089 15.3074C13.1271 15.2914 13.2462 15.3293 13.3335 15.4107C13.4207 15.4921 13.4667 15.6083 13.4589 15.7274V16.9874C13.4589 17.1524 13.3614 17.1524 13.2264 17.1524H13.1364V17.2499H14.1489V17.1524Z" fill="#211E1F"/>
<path fill-rule="evenodd" clip-rule="evenodd" d="M15.9717 16.7999C15.7784 17.1224 15.4394 17.3298 15.0642 17.3549C14.801 17.3491 14.551 17.2378 14.3706 17.046C14.1901 16.8543 14.0941 16.5981 14.1042 16.3349C14.1042 15.3749 14.7492 15.0899 15.0867 15.0899C15.2983 15.0687 15.5089 15.1382 15.6662 15.2812C15.8236 15.4243 15.9128 15.6273 15.9117 15.8399V15.9299H15.8667H14.4942C14.4859 16.0248 14.4859 16.1201 14.4942 16.2149C14.4769 16.6513 14.8087 17.0229 15.2442 17.0549C15.4987 17.0408 15.7367 16.9245 15.9042 16.7324L15.9717 16.7999ZM15.0641 15.2025C15.0703 15.2023 15.0765 15.2023 15.0826 15.2025H15.0641ZM15.0879 15.2026C15.0861 15.2026 15.0844 15.2025 15.0826 15.2025H15.1016C15.097 15.2025 15.0925 15.2025 15.0879 15.2026ZM15.0879 15.2026C15.1968 15.2065 15.3001 15.2533 15.3749 15.3334C15.4551 15.4194 15.4948 15.5354 15.4841 15.6525C15.4841 15.7125 15.4841 15.7725 15.3491 15.7725H14.5391C14.5982 15.4254 14.7955 15.2092 15.0879 15.2026Z" fill="#211E1F"/>
<path d="M16.1892 17.1524H16.0542V17.2499H17.3217V17.1224H17.0517C16.9092 17.1224 16.8117 17.1224 16.8117 16.9574V15.8399C16.8138 15.634 16.9674 15.4611 17.1717 15.4349C17.3442 15.4349 17.3442 15.5549 17.4942 15.5549C17.5572 15.553 17.6168 15.5256 17.6592 15.4789C17.7016 15.4323 17.7233 15.3704 17.7192 15.3074C17.7193 15.2351 17.6896 15.166 17.6371 15.1163C17.5846 15.0666 17.5139 15.0408 17.4417 15.0449C17.1492 15.0449 16.9392 15.3599 16.8192 15.5474V15.1124C16.8192 15.0599 16.8192 15.0449 16.7742 15.0449C16.7292 15.0449 16.5342 15.1724 16.1742 15.3224V15.3974C16.2492 15.3974 16.4292 15.4649 16.4292 15.6149V16.9874C16.4217 17.1524 16.3242 17.1524 16.1892 17.1524Z" fill="#211E1F"/>
<path d="M18.5517 17.1974C18.2253 17.1796 17.9625 16.9232 17.9367 16.5974H17.8467L17.9067 17.1524C18.0868 17.2581 18.2904 17.3174 18.4992 17.3249C19.0767 17.3249 19.3392 16.9799 19.3392 16.6574C19.3392 15.9074 18.2067 16.0649 18.2067 15.4949C18.2123 15.4005 18.2564 15.3125 18.3287 15.2516C18.401 15.1906 18.4952 15.162 18.5892 15.1724C18.8682 15.1596 19.1055 15.3736 19.1217 15.6524H19.2492L19.2117 15.1574C19.04 15.0682 18.8501 15.0194 18.6567 15.0149C18.4722 14.9917 18.2864 15.0465 18.1441 15.1661C18.0017 15.2857 17.9157 15.4592 17.9067 15.6449C17.9067 16.3949 18.9717 16.2449 18.9717 16.8224C18.9809 16.9327 18.9377 17.0409 18.8552 17.1146C18.7726 17.1883 18.6602 17.219 18.5517 17.1974Z" fill="#211E1F"/>
<path d="M23.6443 17.0924L23.7568 16.3799H23.6443C23.5704 16.8659 23.1534 17.2256 22.6619 17.2274C21.7948 17.1556 21.1464 16.4003 21.2069 15.5324C21.1598 15.1394 21.2828 14.745 21.545 14.4484C21.8072 14.1519 22.1835 13.9814 22.5794 13.9799C23.0904 13.9133 23.5595 14.2718 23.6293 14.7824H23.7493L23.6968 14.0849C23.3322 13.9323 22.9441 13.8435 22.5494 13.8224C21.5636 13.7928 20.7375 14.562 20.6969 15.5474C20.6673 16.0485 20.8557 16.538 21.2135 16.8901C21.5713 17.2422 22.0638 17.4226 22.5644 17.3849C22.9405 17.3622 23.3081 17.2626 23.6443 17.0924Z" fill="#211E1F"/>
<path d="M24.972 17.2499V17.1224H24.8895C24.747 17.1224 24.642 17.1224 24.642 16.9574V13.5825V13.515C24.642 13.515 24.5895 13.515 24.537 13.5675C24.3766 13.6535 24.2084 13.7238 24.0345 13.7775V13.86C24.2145 13.9125 24.2895 13.92 24.2895 14.2424V16.9574C24.2895 17.1224 24.192 17.1224 24.057 17.1224H23.9595V17.2499H25.0095H24.972Z" fill="#211E1F"/>
<path d="M25.2491 15.5174V16.7699C25.2317 16.9205 25.2803 17.0713 25.3824 17.1834C25.4845 17.2955 25.63 17.358 25.7816 17.3549C26.1132 17.3318 26.4239 17.1845 26.6516 16.9424V17.3399C26.8826 17.2709 27.1182 17.2182 27.3566 17.1824V17.0999H27.1991C27.1166 17.0999 27.0566 17.0999 27.0566 17.0099V15.2099C27.0566 15.1574 27.0566 15.1199 27.0566 15.1199C27.0566 15.1199 26.7341 15.1574 26.3066 15.1874V15.2774C26.4791 15.3224 26.7116 15.3824 26.7116 15.4724V16.7924C26.5507 16.9468 26.3467 17.0488 26.1266 17.0849C25.6991 17.0849 25.6991 16.6649 25.6991 16.5224V15.2624C25.6991 15.1574 25.6991 15.1199 25.6466 15.1199L25.0166 15.1574V15.2474C25.2491 15.2699 25.2491 15.3899 25.2491 15.5174Z" fill="#211E1F"/>
<path fill-rule="evenodd" clip-rule="evenodd" d="M27.6414 16.3499V14.2499C27.6414 13.9606 27.5717 13.9433 27.3784 13.8954C27.3713 13.8936 27.3639 13.8918 27.3564 13.8899V13.8074C27.5313 13.7567 27.6999 13.6862 27.8589 13.5974L27.9714 13.5449C28.0089 13.5449 28.0089 13.6124 28.0089 13.6124V15.4049C28.211 15.2047 28.4759 15.0802 28.7589 15.0524C29.0172 15.0638 29.2597 15.1797 29.4309 15.3734C29.602 15.5672 29.687 15.8222 29.6664 16.0799C29.692 16.7551 29.1712 17.326 28.4964 17.3624C28.2607 17.361 28.0289 17.3018 27.8214 17.1899L27.6714 17.3024L27.5739 17.2499C27.6204 16.9522 27.6429 16.6512 27.6414 16.3499ZM28.4965 15.2849C28.3187 15.3045 28.1538 15.3869 28.0315 15.5174L27.994 16.7024C28.0055 16.975 28.2239 17.1934 28.4965 17.2049C29.029 17.2049 29.2465 16.6874 29.2465 16.2524C29.2739 15.7876 28.9534 15.3742 28.4965 15.2849Z" fill="#211E1F"/>
<path d="M7.35422 18.3449H6.96422V18.4499H7.01672C7.11422 18.4499 7.19672 18.4499 7.20422 18.5924V19.9799C7.20422 20.1149 7.11422 20.1224 7.01672 20.1224H6.94922V20.2499H7.33922H7.75921V20.1524H7.73671C7.63921 20.1524 7.54921 20.1524 7.54921 20.0099V18.5774C7.54921 18.4424 7.63921 18.4349 7.73671 18.4349H7.78921V18.3299L7.35422 18.3449Z" fill="#211E1F"/>
<path d="M9.68675 18.3449H9.31175V18.4499H9.37925C9.46175 18.4499 9.59675 18.4499 9.60425 18.6899V19.6649L8.43425 18.3524C8.34425 18.3524 8.26926 18.3524 8.18676 18.3524H7.87926V18.4574H7.92426C7.98522 18.4554 8.04439 18.4782 8.08823 18.5206C8.13206 18.563 8.15679 18.6214 8.15676 18.6824V19.8074C8.15676 20.0174 8.10426 20.1299 7.92426 20.1299H7.86426V20.2499H8.23176H8.56925V20.1524H8.50925C8.31425 20.1524 8.27676 20.0849 8.26926 19.8524V18.7499L9.61925 20.2499H9.74675C9.74675 20.1674 9.74675 20.0774 9.74675 19.9874V18.7499C9.74675 18.4424 9.86674 18.4274 9.97174 18.4274H10.0242V18.3224L9.68675 18.3449Z" fill="#211E1F"/>
<path d="M11.8616 18.2474C11.8616 18.3149 11.8016 18.3149 11.7266 18.3149H10.3391C10.2716 18.3149 10.2266 18.3149 10.2041 18.2474H10.1216C10.1256 18.3198 10.1256 18.3924 10.1216 18.4649C10.1216 18.5474 10.1216 18.6224 10.1216 18.6899H10.2266C10.2716 18.4949 10.2716 18.4574 10.4666 18.4574H10.8866V19.8674C10.8866 20.0699 10.8266 20.0699 10.6766 20.0774H10.6166V20.2499H11.0666H11.4941V20.1524H11.4341C11.3066 20.1524 11.2241 20.1524 11.2241 19.9349V18.4874H11.6441C11.8166 18.4874 11.8241 18.6299 11.8316 18.7349L11.9291 18.6974V18.4799C11.9291 18.4124 11.9291 18.3374 11.9291 18.2624H11.8541L11.8616 18.2474Z" fill="#211E1F"/>
<path d="M13.4515 19.7398C13.3765 20.0398 13.2415 20.0548 12.9265 20.0548C12.754 20.0548 12.6115 20.0548 12.6115 19.8898V19.2823H12.919C13.099 19.2823 13.099 19.3798 13.114 19.5373H13.2115C13.2115 19.4323 13.2115 19.3348 13.2115 19.2374C13.2115 19.1399 13.2115 19.0274 13.2115 18.9224H13.1065C13.1065 19.0649 13.0615 19.1399 12.9115 19.1474H12.604V18.4724H12.964C13.234 18.4724 13.2565 18.5999 13.2715 18.7724H13.3615C13.3615 18.6974 13.3615 18.5924 13.3615 18.5024V18.3524H12.679H12.019V18.4574H12.064C12.1615 18.4574 12.244 18.4574 12.2515 18.5999V19.9873C12.2515 20.1223 12.1615 20.1298 12.064 20.1298H12.019V20.2498H12.724H13.474C13.474 20.1148 13.534 19.9723 13.564 19.8298H13.4815L13.4515 19.7398Z" fill="#211E1F"/>
<path fill-rule="evenodd" clip-rule="evenodd" d="M14.7718 19.2824L15.2218 19.9499C15.2564 20.0734 15.3711 20.1571 15.4993 20.1524V20.2499L15.2068 20.2049H14.9518C14.747 19.9332 14.5615 19.6475 14.3968 19.3499H14.2393V19.9499C14.2468 20.1524 14.3218 20.1524 14.4493 20.1524H14.4943V20.2499H14.0368H13.6543V20.1074H13.7143C13.8118 20.1074 13.8943 20.0624 13.8943 19.9724V18.6224C13.8943 18.4349 13.7968 18.4349 13.7143 18.4349H13.6543V18.3299H14.0668H14.4943C14.8243 18.3299 15.1393 18.4274 15.1393 18.8099C15.1342 19.0311 14.985 19.223 14.7718 19.2824ZM14.3522 19.2299C14.6147 19.2299 14.7497 19.1399 14.7497 18.8249C14.75 18.7279 14.7096 18.6353 14.6383 18.5697C14.5669 18.504 14.4712 18.4714 14.3747 18.4799H14.2322V19.2299H14.3522Z" fill="#211E1F"/>
<path d="M17.6964 18.4349V18.3299H17.3664H16.9914V18.4349H17.0589C17.1414 18.4349 17.2764 18.4349 17.2839 18.6749V19.6499L16.0989 18.3374C16.0089 18.3374 15.9339 18.3374 15.8514 18.3374H15.5439V18.4424H15.5889C15.6499 18.4404 15.7091 18.4632 15.7529 18.5056C15.7967 18.548 15.8215 18.6064 15.8214 18.6674V19.7849C15.8214 20.0024 15.7689 20.1149 15.5889 20.1149H15.5439V20.2499H15.9114H16.2489V20.1524H16.1889C15.9939 20.1524 15.9564 20.0849 15.9564 19.8524V18.7499L17.2989 20.2499H17.4264C17.4264 20.1674 17.4264 20.0774 17.4264 19.9874V18.7499C17.4264 18.4424 17.5464 18.4274 17.6514 18.4274H17.7039L17.6964 18.4349Z" fill="#211E1F"/>
<path fill-rule="evenodd" clip-rule="evenodd" d="M19.282 19.8123C19.3141 19.8803 19.3466 19.9492 19.3466 20.0099C19.3468 20.0688 19.3783 20.1231 19.4293 20.1525C19.4803 20.1819 19.5432 20.1818 19.5941 20.1524V20.2499H19.2342H18.8292V20.1524H18.8667C18.9342 20.1524 19.0242 20.1374 19.0242 20.0849C19.0142 20.0205 18.9966 19.9576 18.9717 19.8974L18.8667 19.5974H18.2817L18.1992 19.8674C18.1748 19.9335 18.1548 20.0012 18.1392 20.0699C18.1392 20.1524 18.2442 20.1524 18.3267 20.1524H18.3717V20.2499H18.0492H17.7642V20.1149C17.8675 20.116 17.9592 20.0488 17.9892 19.9499L18.4092 18.7274C18.452 18.6175 18.4871 18.5047 18.5142 18.3899C18.601 18.3628 18.6841 18.325 18.7617 18.2774V18.3449L19.2492 19.7399C19.259 19.7636 19.2705 19.7879 19.282 19.8123ZM18.4989 18.6674L18.2664 19.3799H18.7314L18.4989 18.6674Z" fill="#211E1F"/>
<path d="M21.094 18.2474C21.094 18.3149 21.034 18.3149 20.959 18.3149H19.579C19.5115 18.3149 19.459 18.3149 19.444 18.2474H19.354C19.3617 18.3197 19.3617 18.3926 19.354 18.4649C19.354 18.5474 19.354 18.6224 19.354 18.6974H19.459C19.4965 18.5024 19.4965 18.4649 19.6915 18.4649H20.119V19.8749C20.119 20.0774 20.0515 20.0774 19.909 20.0849H19.8415V20.2499H20.2915H20.7265V20.1524H20.6665C20.539 20.1524 20.4565 20.1524 20.4565 19.9349V18.4874H20.884C21.049 18.4874 21.0565 18.6299 21.064 18.7349L21.1615 18.6974C21.1576 18.6249 21.1576 18.5523 21.1615 18.4799C21.1615 18.4124 21.1615 18.3374 21.1615 18.2624H21.0865L21.094 18.2474Z" fill="#211E1F"/>
<path d="M21.6641 18.3449H21.2666V18.4499H21.3116C21.4091 18.4499 21.4991 18.4499 21.4991 18.5924V19.9799C21.4991 20.1149 21.4091 20.1224 21.3116 20.1224H21.2666V20.2499H21.6566H22.0766V20.1524H22.0241C21.9266 20.1524 21.8441 20.1524 21.8441 20.0099V18.5774C21.8441 18.4424 21.9266 18.4349 22.0241 18.4349H22.0766V18.3299L21.6641 18.3449Z" fill="#211E1F"/>
<path fill-rule="evenodd" clip-rule="evenodd" d="M22.4319 18.5801C22.618 18.394 22.871 18.2904 23.1342 18.2924C23.3974 18.2672 23.6592 18.3534 23.8558 18.5302C24.0525 18.7069 24.1662 18.958 24.1692 19.2224C24.1797 19.4967 24.0759 19.763 23.8825 19.9578C23.6891 20.1526 23.4235 20.2584 23.1492 20.2499C22.885 20.2645 22.6266 20.1686 22.4359 19.985C22.2453 19.8015 22.1396 19.547 22.1442 19.2824C22.1422 19.0192 22.2458 18.7662 22.4319 18.5801ZM23.7715 19.2824C23.7715 18.8924 23.5615 18.4349 23.134 18.4349C22.6765 18.4349 22.5415 18.8399 22.5415 19.1924C22.5415 19.6649 22.6765 20.1074 23.179 20.1074C23.6815 20.1074 23.7715 19.6724 23.7715 19.2824Z" fill="#211E1F"/>
<path d="M26.3741 18.4349V18.3299H26.0516H25.6766V18.4349H25.7441C25.8191 18.4349 25.9616 18.4349 25.9616 18.6749V19.6499L24.7916 18.3374C24.7016 18.3374 24.6266 18.3374 24.5516 18.3374H24.2441V18.4424H24.2891C24.3494 18.4403 24.4079 18.4633 24.4506 18.506C24.4932 18.5486 24.5163 18.6071 24.5141 18.6674V19.7924C24.5141 20.0024 24.4616 20.1149 24.2891 20.1149H24.2441V20.2499H24.6041H24.9491V20.1524H24.8966C24.6941 20.1524 24.6641 20.0849 24.6566 19.8524V18.7499L25.9991 20.2499H26.1191C26.1115 20.1626 26.1115 20.0747 26.1191 19.9874V18.7499C26.1191 18.4424 26.2316 18.4274 26.3441 18.4274H26.3966L26.3741 18.4349Z" fill="#211E1F"/>
<path fill-rule="evenodd" clip-rule="evenodd" d="M27.9267 19.7399C27.9547 19.8315 27.9872 19.9216 28.0242 20.0099C28.0268 20.0581 28.0513 20.1025 28.0908 20.1303C28.1304 20.1581 28.1804 20.1663 28.2267 20.1524V20.2499H27.8592H27.4617V20.1524H27.4992C27.5592 20.1524 27.6492 20.1374 27.6492 20.0849C27.6383 20.0207 27.6207 19.9579 27.5967 19.8974L27.4992 19.5974H27.0117L26.9292 19.8674C26.9013 19.9323 26.8812 20.0003 26.8692 20.0699C26.8692 20.1524 26.9667 20.1524 27.0567 20.1524V20.2499H26.7342H26.4492V20.1149C26.5498 20.1127 26.6375 20.0461 26.6667 19.9499L27.0942 18.7274C27.1371 18.6175 27.1722 18.5047 27.1992 18.3899C27.2831 18.3614 27.3636 18.3237 27.4392 18.2774V18.3449L27.9267 19.7399ZM26.9369 19.3799H27.4019L27.1769 18.6674L26.9369 19.3799Z" fill="#211E1F"/>
<path d="M29.7487 19.7324C29.7326 19.7993 29.7046 19.8628 29.6662 19.9199C29.6039 19.9948 29.5154 20.043 29.4187 20.0549H29.0737C28.9912 20.0549 28.9237 20.0174 28.9237 19.9124V18.5699C28.9237 18.4349 28.9912 18.4349 29.0887 18.4349H29.1712V18.3299H28.7662H28.3462V18.4349H28.3912C28.4887 18.4349 28.5787 18.4349 28.5787 18.5774V19.9424C28.5787 20.0999 28.4887 20.1074 28.3912 20.1074H28.3462V20.2499H29.0512H29.7487C29.7487 20.0999 29.8162 19.9499 29.8462 19.7999H29.7487V19.7324Z" fill="#211E1F"/>
<path fill-rule="evenodd" clip-rule="evenodd" d="M29.479 18.5523C29.4763 18.4 29.5968 18.274 29.749 18.2699C29.8245 18.2657 29.8983 18.2933 29.9525 18.346C30.0066 18.3988 30.0362 18.4718 30.034 18.5474C30.0339 18.6997 29.9112 18.8234 29.7589 18.8248C29.6067 18.8261 29.4818 18.7045 29.479 18.5523ZM29.5239 18.5249C29.5239 18.6491 29.6246 18.7499 29.7489 18.7499C29.8085 18.7499 29.8658 18.7262 29.908 18.684C29.9502 18.6418 29.9739 18.5846 29.9739 18.5249C29.9739 18.4006 29.8731 18.2999 29.7489 18.2999C29.6246 18.2999 29.5239 18.4006 29.5239 18.5249Z" fill="#211E1F"/>
<path fill-rule="evenodd" clip-rule="evenodd" d="M29.8694 18.4724C29.8701 18.5127 29.8415 18.5476 29.8019 18.5549V18.6149L29.8619 18.6824H29.8094C29.79 18.6824 29.7737 18.6572 29.7503 18.6211C29.7376 18.6015 29.7229 18.5787 29.7044 18.5549V18.6449H29.6294V18.4349V18.3974H29.7719C29.8244 18.3974 29.8694 18.4199 29.8694 18.4724ZM29.7194 18.4274V18.5549H29.7269C29.7794 18.5549 29.7794 18.5249 29.7794 18.4874C29.782 18.4708 29.7766 18.454 29.7647 18.4421C29.7528 18.4303 29.736 18.4248 29.7194 18.4274Z" fill="#211E1F"/>
<path d="M19.519 13.1924C22.1526 13.2074 24.3294 11.1431 24.454 8.51245C24.4383 7.22415 23.9078 5.9957 22.9807 5.10102C22.0536 4.20634 20.8071 3.71983 19.519 3.74998H17.2691C15.998 3.72089 14.7704 4.21355 13.8721 5.1133C12.9737 6.01305 12.483 7.2414 12.5141 8.51245C12.5429 11.1144 14.667 13.2049 17.2691 13.1924H19.519Z" fill="#0779BE"/>
<path fill-rule="evenodd" clip-rule="evenodd" d="M17.3141 4.14001C14.9283 4.14001 12.9941 6.07413 12.9941 8.45999C12.9941 10.8458 14.9283 12.78 17.3141 12.78C19.7 12.78 21.6341 10.8458 21.6341 8.45999C21.6341 6.07413 19.7 4.14001 17.3141 4.14001ZM14.5765 8.45994C14.5776 7.32696 15.2747 6.31107 16.3315 5.90246V11.0174C15.2734 10.6106 14.5755 9.59359 14.5765 8.45994ZM20.0503 8.45994C20.0503 7.32473 19.3497 6.30731 18.2891 5.90246V11.0174C19.3497 10.6126 20.0503 9.59515 20.0503 8.45994Z" fill="white"/>
<path d="M19.519 13.1924C22.1526 13.2074 24.3294 11.1431 24.454 8.51245C24.4383 7.22415 23.9078 5.9957 22.9807 5.10102C22.0536 4.20634 20.8071 3.71983 19.519 3.74998H17.2691C15.998 3.72089 14.7704 4.21355 13.8721 5.1133C12.9737 6.01305 12.483 7.2414 12.5141 8.51245C12.5429 11.1144 14.667 13.2049 17.2691 13.1924H19.519Z" fill="#0779BE"/>
<path fill-rule="evenodd" clip-rule="evenodd" d="M17.3141 4.14001C14.9283 4.14001 12.9941 6.07413 12.9941 8.45999C12.9941 10.8458 14.9283 12.78 17.3141 12.78C19.7 12.78 21.6341 10.8458 21.6341 8.45999C21.6341 6.07413 19.7 4.14001 17.3141 4.14001ZM14.5765 8.45994C14.5776 7.32696 15.2747 6.31107 16.3315 5.90246V11.0174C15.2734 10.6106 14.5755 9.59359 14.5765 8.45994ZM20.0503 8.45994C20.0503 7.32473 19.3497 6.30731 18.2891 5.90246V11.0174C19.3497 10.6126 20.0503 9.59515 20.0503 8.45994Z" fill="white"/>
</svg>
