<svg width="37" height="24" viewBox="0 0 37 24" fill="none" xmlns="http://www.w3.org/2000/svg">
<rect x="0.248535" width="35.9998" height="23.9998" rx="4" fill="white"/>
<path d="M24.3232 13.9274H26.0557H26.2657C26.6236 13.8582 26.8799 13.5418 26.8732 13.1774C26.8605 12.82 26.6127 12.5141 26.2657 12.4274C26.196 12.4194 26.1255 12.4194 26.0557 12.4274H24.3232V13.9274Z" fill="#40A648"/>
<path d="M25.8534 3C24.1965 3 22.8534 4.34314 22.8534 5.99998V9.11246H27.0909C27.1905 9.10072 27.2912 9.10072 27.3908 9.11246C28.3433 9.15746 29.0558 9.65246 29.0558 10.5075C29.0362 11.2572 28.433 11.8603 27.6833 11.8799C28.6583 11.9474 29.4008 12.4874 29.4008 13.3349C29.4008 14.1824 28.5758 14.8349 27.4883 14.8349H22.8384V20.9999H27.2484C28.9052 20.9999 30.2483 19.6567 30.2483 17.9999V3H25.8534Z" fill="#40A648"/>
<path d="M26.6632 10.7324C26.6904 10.3613 26.4244 10.0329 26.0557 9.98242H25.8907H24.3232V11.4299H25.8907C25.9454 11.4384 26.0011 11.4384 26.0557 11.4299C26.4083 11.3841 26.67 11.0804 26.6632 10.7249V10.7324Z" fill="#40A648"/>
<path d="M9.24852 3C7.59167 3 6.24854 4.34314 6.24854 5.99998V13.4024C7.04842 13.8214 7.93339 14.0523 8.83602 14.0774C9.25628 14.1264 9.67681 13.9881 9.98594 13.6992C10.2951 13.4103 10.4615 13 10.441 12.5774V9.09746H12.9985V12.5774C12.9985 13.9274 12.1585 15.0299 9.30852 15.0299C8.27711 15.0292 7.24961 14.9032 6.24854 14.6549V20.9999H10.651C12.3078 20.9999 13.651 19.6567 13.651 17.9999V3H9.24852Z" fill="#0D67B0"/>
<path d="M17.5659 3C15.9091 3 14.5659 4.34314 14.5659 5.99998V9.92245C15.3159 9.27746 16.6434 8.86496 18.7659 8.96996C19.5603 9.01736 20.3486 9.13787 21.1209 9.32996V10.5974C20.4248 10.2237 19.6586 9.99893 18.8709 9.93745C17.2584 9.82495 16.2834 10.6124 16.2834 11.9999C16.2834 13.3874 17.2584 14.1899 18.8709 14.0624C19.6566 13.9906 20.4209 13.7665 21.1209 13.4024V14.6699C20.3489 14.8636 19.5604 14.9841 18.7659 15.0299C16.6434 15.1349 15.3234 14.7224 14.5659 14.0774V20.9999H18.9984C20.6552 20.9999 21.9984 19.6567 21.9984 17.9999V3H17.5659Z" fill="#BE2034"/>
</svg>
