<svg width="168" height="169" viewBox="0 0 168 169" fill="none" xmlns="http://www.w3.org/2000/svg">
<path d="M12.2539 42.8256L84 1.15642L155.746 42.8256V126.174L84 167.844L12.2539 126.174V42.8256Z" fill="white" stroke="#F2994A" stroke-width="2"/>
<g clip-path="url(#clip0)">
<path d="M71.817 120.17C71.5287 120.17 71.1682 120.026 70.9519 119.81L64.8244 113.682C64.6081 113.466 64.464 113.177 64.464 112.817V60.4085C64.464 58.39 62.8059 56.732 60.7874 56.732C58.7689 56.732 57.1109 58.39 57.1109 60.4085V96.9575C57.1109 100.346 54.3715 103.085 50.9834 103.085C47.5952 103.085 45 100.346 45 96.9575V48.2255C45 47.5767 45.5767 47 46.2255 47H97.4085C98.0573 47 98.634 47.5767 98.634 48.2255V51.902H96.183V49.451H47.451V97.0296C47.451 99.0481 49.1091 100.706 51.1275 100.706C53.146 100.706 54.8041 99.0481 54.8041 97.0296V60.4085C54.8041 57.0203 57.5434 54.281 60.9316 54.281C64.3198 54.281 67.0592 57.0203 67.0592 60.4085V112.312L71.9612 117.214L75.9982 113.177C76.5028 112.673 77.2237 112.673 77.7283 113.177L82.6303 118.079L80.9002 119.81L76.719 115.773L72.6821 119.81C72.4658 120.026 72.1054 120.17 71.817 120.17Z" fill="#363F40"/>
<path d="M62.0849 100.634H51.1274V103.085H62.0849V100.634Z" fill="#363F40"/>
<path d="M83.9998 86H81.5488V103.085H83.9998V86Z" fill="#363F40"/>
<path d="M79.1703 90.902H76.7192V103.085H79.1703V90.902Z" fill="#363F40"/>
<path d="M74.2679 81.1701H71.8169V103.085H74.2679V81.1701Z" fill="#363F40"/>
<path d="M118.17 68.915H115.719V60.4085C115.719 58.39 114.061 56.732 112.042 56.732H60.8594V54.281H112.042C115.431 54.281 118.17 57.0203 118.17 60.4085V68.915Z" fill="#363F40"/>
<path d="M121.847 125H87.6767C87.0279 125 86.4512 124.423 86.4512 123.775V72.5915C86.4512 71.9427 87.0279 71.366 87.6767 71.366H121.847C122.496 71.366 123.072 71.9427 123.072 72.5915V123.775C123 124.495 122.496 125 121.847 125ZM88.9022 122.621H120.621V73.817H88.9022V122.621Z" fill="#363F40"/>
<path d="M118.17 83.549H91.353V86H118.17V83.549Z" fill="#363F40"/>
<path d="M118.17 76.268H91.353V78.7191H118.17V76.268Z" fill="#363F40"/>
<path d="M97.4085 100.634H92.5785C91.9297 100.634 91.353 100.057 91.353 99.4085V94.5786C91.353 93.9298 91.9297 93.3531 92.5785 93.3531H97.4806C98.1294 93.3531 98.7061 93.9298 98.7061 94.5786V99.4806C98.634 100.129 98.1294 100.634 97.4085 100.634ZM93.804 98.183H96.183V95.732H93.732V98.183H93.804Z" fill="#363F40"/>
<path d="M107.213 100.634H102.31C101.662 100.634 101.085 100.057 101.085 99.4085V94.5786C101.085 93.9298 101.662 93.3531 102.31 93.3531H107.213C107.861 93.3531 108.438 93.9298 108.438 94.5786V99.4806C108.366 100.129 107.861 100.634 107.213 100.634ZM103.536 98.183H105.987V95.732H103.536V98.183Z" fill="#363F40"/>
<path d="M116.945 100.634H112.043C111.394 100.634 110.817 100.057 110.817 99.4085V94.5786C110.817 93.9298 111.394 93.3531 112.043 93.3531H116.945C117.594 93.3531 118.17 93.9298 118.17 94.5786V99.4806C118.17 100.129 117.594 100.634 116.945 100.634ZM113.268 98.183H115.719V95.732H113.268V98.183Z" fill="#363F40"/>
<path d="M97.4085 110.366H92.5785C91.9297 110.366 91.353 109.789 91.353 109.14V104.238C91.353 103.59 91.9297 103.013 92.5785 103.013H97.4806C98.1294 103.013 98.7061 103.59 98.7061 104.238V109.14C98.634 109.861 98.1294 110.366 97.4085 110.366ZM93.804 107.987H96.183V105.536H93.732V107.987H93.804Z" fill="#363F40"/>
<path d="M107.213 110.366H102.31C101.662 110.366 101.085 109.789 101.085 109.14V104.238C101.085 103.59 101.662 103.013 102.31 103.013H107.213C107.861 103.013 108.438 103.59 108.438 104.238V109.14C108.366 109.861 107.861 110.366 107.213 110.366ZM103.536 107.987H105.987V105.536H103.536V107.987Z" fill="#363F40"/>
<path d="M116.945 110.366H112.043C111.394 110.366 110.817 109.789 110.817 109.14V104.238C110.817 103.59 111.394 103.013 112.043 103.013H116.945C117.594 103.013 118.17 103.59 118.17 104.238V109.14C118.17 109.861 117.594 110.366 116.945 110.366ZM113.268 107.987H115.719V105.536H113.268V107.987Z" fill="#363F40"/>
<path d="M97.4085 120.17H92.5785C91.9297 120.17 91.353 119.593 91.353 118.945V114.043C91.353 113.394 91.9297 112.817 92.5785 112.817H97.4806C98.1294 112.817 98.7061 113.394 98.7061 114.043V118.945C98.634 119.593 98.1294 120.17 97.4085 120.17ZM93.804 117.719H96.183V115.268H93.732V117.719H93.804Z" fill="#363F40"/>
<path d="M107.213 120.17H102.31C101.662 120.17 101.085 119.593 101.085 118.945V114.043C101.085 113.394 101.662 112.817 102.31 112.817H107.213C107.861 112.817 108.438 113.394 108.438 114.043V118.945C108.366 119.593 107.861 120.17 107.213 120.17ZM103.536 117.719H105.987V115.268H103.536V117.719Z" fill="#363F40"/>
<path d="M116.945 120.17H112.043C111.394 120.17 110.817 119.593 110.817 118.945V114.043C110.817 113.394 111.394 112.817 112.043 112.817H116.945C117.594 112.817 118.17 113.394 118.17 114.043V118.945C118.17 119.593 117.594 120.17 116.945 120.17ZM113.268 117.719H115.719V115.268H113.268V117.719Z" fill="#363F40"/>
<path d="M118.098 88.451H110.817V90.902H118.098V88.451Z" fill="#363F40"/>
<path d="M115.719 79.9445H113.268V82.3956H115.719V79.9445Z" fill="#363F40"/>
<path d="M110.817 79.9445H108.366V82.3956H110.817V79.9445Z" fill="#363F40"/>
<path d="M105.987 79.9445H103.536V82.3956H105.987V79.9445Z" fill="#363F40"/>
<path d="M101.085 79.9445H98.6343V82.3956H101.085V79.9445Z" fill="#363F40"/>
<path d="M83.9999 105.536H71.8169V107.987H83.9999V105.536Z" fill="#363F40"/>
<path d="M83.9999 73.817H73.0424C72.3936 73.817 71.8169 73.2403 71.8169 72.5915V62.8595C71.8169 62.2107 72.3936 61.634 73.0424 61.634H109.591C110.24 61.634 110.817 62.2107 110.817 62.8595V68.9871H108.366V64.085H74.2679V71.366H83.9999V73.817Z" fill="#363F40"/>
<path d="M88.9022 66.536H76.7192V68.9871H88.9022V66.536Z" fill="#363F40"/>
</g>
<defs>
<clipPath id="clip0">
<rect width="78" height="78" fill="white" transform="translate(45 47)"/>
</clipPath>
</defs>
</svg>
