<svg width="169" height="169" viewBox="0 0 169 169" fill="none" xmlns="http://www.w3.org/2000/svg">
<path d="M12.3209 42.8274L84.5 1.1547L156.679 42.8274V126.173L84.5 167.845L12.3209 126.173V42.8274Z" fill="white" stroke="#F2994A" stroke-width="2"/>
<path d="M110.097 80.5H107.871V59.575L99.6356 51.25H61.1291V80.5H58.9033V49H100.526L110.097 58.675V80.5Z" fill="#363F40"/>
<path d="M56.6774 110.875H54.4516V107.725L50.1113 94.3375C50 94.1125 50 93.8875 50.1113 93.6625L53.5613 83.5375C53.6726 83.3125 53.7839 83.0875 54.0065 82.975L59.4597 79.6L60.5726 81.5125L55.4532 84.6625L52.3371 94L56.6774 107.163C56.6774 107.275 56.6774 107.388 56.6774 107.5V110.875Z" fill="#363F40"/>
<path d="M70.0325 112H67.8067V97.4875L65.5808 87.25V80.5C65.5808 79.2625 64.6905 78.25 63.4663 78.25C62.2421 78.25 61.1292 79.2625 61.1292 80.5V89.6125L60.0163 97.4875L57.7905 97.15L58.9034 89.3875V80.5C58.9034 78.025 61.0179 76 63.4663 76C65.9147 76 67.8067 78.025 67.8067 80.5V87.1375L70.0325 97.375V112Z" fill="#363F40"/>
<path d="M72.2578 121H70.032V112H54.4514V121H52.2256V110.875C52.2256 110.2 52.6707 109.75 53.3385 109.75H71.1449C71.8127 109.75 72.2578 110.2 72.2578 110.875V121Z" fill="#363F40"/>
<path d="M67.8064 114.25H65.5806V116.5H67.8064V114.25Z" fill="#363F40"/>
<path d="M114.549 110.875H112.323V107.5C112.323 107.388 112.323 107.275 112.434 107.163L116.663 94L113.547 84.6625L108.428 81.5125L109.541 79.6L114.994 82.975C115.216 83.0875 115.439 83.3125 115.439 83.5375L118.889 93.6625C119 93.8875 119 94.1125 118.889 94.3375L114.549 107.725V110.875Z" fill="#363F40"/>
<path d="M101.194 110.875H98.9678V97.15L101.194 87.1375V80.5C101.194 78.025 103.086 76 105.534 76C107.982 76 110.097 78.025 110.097 80.5V89.3875L111.21 97.15L108.984 97.4875L107.871 89.5V80.5C107.871 79.2625 106.758 78.25 105.534 78.25C104.31 78.25 103.419 79.2625 103.419 80.5V87.475L101.194 97.4875V110.875Z" fill="#363F40"/>
<path d="M103.42 114.25H101.194V116.5H103.42V114.25Z" fill="#363F40"/>
<path d="M115.662 121H113.436V112H98.968V121H96.7422V112C96.7422 110.762 97.7438 109.75 98.968 109.75H113.436C114.66 109.75 115.662 110.762 115.662 112V121Z" fill="#363F40"/>
<path d="M108.984 60.25H98.9678V50.125H101.194V58H108.984V60.25Z" fill="#363F40"/>
<path d="M67.8064 55.75H65.5806V58H67.8064V55.75Z" fill="#363F40"/>
<path d="M72.258 55.75H70.0322V58H72.258V55.75Z" fill="#363F40"/>
<path d="M76.7097 55.75H74.4839V58H76.7097V55.75Z" fill="#363F40"/>
<path d="M105.645 62.5H63.355V64.75H105.645V62.5Z" fill="#363F40"/>
<path d="M105.645 67H63.355V69.25H105.645V67Z" fill="#363F40"/>
<path d="M105.645 71.5H63.355V73.75H105.645V71.5Z" fill="#363F40"/>
<path d="M92.2903 78.25H90.0645V100.75H92.2903V78.25Z" fill="#363F40"/>
<path d="M96.7419 82.75H94.5161V100.75H96.7419V82.75Z" fill="#363F40"/>
<path d="M87.8386 85H85.6128V100.75H87.8386V85Z" fill="#363F40"/>
<path d="M83.3869 80.5H81.1611V100.75H83.3869V80.5Z" fill="#363F40"/>
<path d="M74.4841 82.75H72.2583V100.75H74.4841V82.75Z" fill="#363F40"/>
<path d="M74.4841 103H72.2583V105.25H74.4841V103Z" fill="#363F40"/>
<path d="M78.9353 87.25H76.7095V100.75H78.9353V87.25Z" fill="#363F40"/>
<path d="M78.9353 103H76.7095V105.25H78.9353V103Z" fill="#363F40"/>
<path d="M83.3869 103H81.1611V105.25H83.3869V103Z" fill="#363F40"/>
<path d="M87.8386 103H85.6128V105.25H87.8386V103Z" fill="#363F40"/>
<path d="M92.2903 103H90.0645V105.25H92.2903V103Z" fill="#363F40"/>
<path d="M96.7419 103H94.5161V105.25H96.7419V103Z" fill="#363F40"/>
</svg>
