<svg width="169" height="169" viewBox="0 0 169 169" fill="none" xmlns="http://www.w3.org/2000/svg">
<path d="M12.3209 42.8274L84.5 1.1547L156.679 42.8274V126.173L84.5 167.845L12.3209 126.173V42.8274Z" fill="white" stroke="#F2994A" stroke-width="2"/>
<path d="M110.906 79.2115H57.0938C51.4562 79.2115 46.8438 74.5731 46.8438 68.9038H49.4062C49.4062 73.1558 52.8656 76.6346 57.0938 76.6346H110.906C115.134 76.6346 118.594 73.1558 118.594 68.9038H121.156C121.156 74.5731 116.544 79.2115 110.906 79.2115Z" fill="#363F40"/>
<path d="M121.156 114H46.8438V101.115H49.4062V111.423H118.594V101.115H121.156V114Z" fill="#363F40"/>
<path d="M121.156 85.6538H118.594V59.8846H49.4062V85.6538H46.8438V57.3077H121.156V85.6538Z" fill="#363F40"/>
<path d="M95.5312 58.5962H92.9688V49.5769H75.0312V58.5962H72.4688V48.2885C72.4688 47.5154 72.9812 47 73.75 47H94.25C95.0187 47 95.5312 47.5154 95.5312 48.2885V58.5962Z" fill="#363F40"/>
<path d="M85.2812 68.9038H82.7188V71.4808H85.2812V68.9038Z" fill="#363F40"/>
<path d="M90.4062 68.9038H87.8438V71.4808H90.4062V68.9038Z" fill="#363F40"/>
<path d="M80.1562 68.9038H77.5938V71.4808H80.1562V68.9038Z" fill="#363F40"/>
<path d="M94.25 52.1538H73.75V54.7308H94.25V52.1538Z" fill="#363F40"/>
<path d="M117.312 95.9615H58.375V98.5385H117.312V95.9615Z" fill="#363F40"/>
<path d="M117.312 88.2308H58.375V90.8077H117.312V88.2308Z" fill="#363F40"/>
<path d="M125 98.5385H116.031V88.2308H125V98.5385ZM118.594 95.9615H122.438V90.8077H118.594V95.9615Z" fill="#363F40"/>
<path d="M58.375 98.5385H50.6875C50.4313 98.5385 50.175 98.5385 50.0469 98.4096L43.6406 94.5442C43.2562 94.2865 43 93.9 43 93.3846C43 92.8692 43.2562 92.4827 43.6406 92.225L50.0469 88.3596C50.175 88.2308 50.4313 88.2308 50.6875 88.2308H58.375C59.1437 88.2308 59.6562 88.7462 59.6562 89.5192V97.25C59.6562 98.0231 59.1437 98.5385 58.375 98.5385ZM51.0719 95.9615H57.0938V90.8077H51.0719L46.8438 93.3846L51.0719 95.9615Z" fill="#363F40"/>
<path d="M80.1562 89.5192H77.5938V97.25H80.1562V89.5192Z" fill="#363F40"/>
<path d="M110.906 103.692H91.6875V101.115H108.344V97.25H110.906V103.692Z" fill="#363F40"/>
</svg>
