<svg width="169" height="169" viewBox="0 0 169 169" fill="none" xmlns="http://www.w3.org/2000/svg">
<path d="M12.3209 42.8274L84.5 1.1547L156.679 42.8274V126.173L84.5 167.845L12.3209 126.173V42.8274Z" fill="white" stroke="#F2994A" stroke-width="2"/>
<path d="M57.2622 116H52.0691C51.5091 116 51 115.542 51 114.931V62.5935C51 62.0334 51.4582 61.5243 52.0691 61.5243H87.6565C88.2166 61.5243 88.7257 61.9825 88.7257 62.5935V76.1869H86.6383V63.6626H53.0874V113.913H57.2622V116Z" fill="#363F40"/>
<path d="M116.931 116H60.4185V113.913H115.912V79.3434H118V114.931C118 115.491 117.491 116 116.931 116Z" fill="#363F40"/>
<path d="M80.3252 59.4878H78.2378C78.2378 54.8549 74.4703 51.1383 69.8882 51.1383C65.3062 51.1383 61.5387 54.9058 61.5387 59.4878H59.4513C59.3495 53.6839 64.0843 49 69.8373 49C75.5904 49 80.3252 53.6839 80.3252 59.4878Z" fill="#363F40"/>
<path d="M61.437 59.4879H59.3496V74.1505H61.437V59.4879Z" fill="#363F40"/>
<path d="M80.2744 59.4879H78.187V74.1505H80.2744V59.4879Z" fill="#363F40"/>
<path d="M80.2744 84.5874H78.187V92.937H80.2744V84.5874Z" fill="#363F40"/>
<path d="M99.1626 84.5874H97.0752V92.937H99.1626V84.5874Z" fill="#363F40"/>
<path d="M88.6749 103.425C82.9218 103.425 78.187 98.7409 78.187 92.9369H80.2744C80.2744 97.5699 84.0419 101.286 88.6239 101.286C93.2569 101.286 96.9735 97.519 96.9735 92.9369H99.0609C99.1627 98.7409 94.4279 103.425 88.6749 103.425Z" fill="#363F40"/>
<path d="M57.3133 101.337H52.0693V103.425H57.3133V101.337Z" fill="#363F40"/>
<path d="M94.937 72.0121H92.8496V74.0995H94.937V72.0121Z" fill="#363F40"/>
<path d="M99.1626 72.0121H97.0752V74.0995H99.1626V72.0121Z" fill="#363F40"/>
<path d="M103.337 72.0121H101.25V74.0995H103.337V72.0121Z" fill="#363F40"/>
<path d="M116.931 116H60.4188C59.8587 116 59.3496 115.542 59.3496 114.931V79.3435C59.3496 78.7834 59.8078 78.2743 60.4188 78.2743H116.931C117.491 78.2743 118 78.7325 118 79.3435V114.931C118 115.491 117.491 116 116.931 116ZM61.4879 113.913H115.913V80.4126H61.4879V113.913Z" fill="#363F40"/>
<path d="M116.931 107.6H60.4185V109.687H116.931V107.6Z" fill="#363F40"/>
</svg>
