<svg width="36" height="24" viewBox="0 0 36 24" fill="none" xmlns="http://www.w3.org/2000/svg">
<rect width="35.9998" height="23.9998" rx="4" fill="#F2F0EC"/>
<g opacity="0.01">
<rect x="3.4873" y="2.39996" width="29.0323" height="19.1999" fill="white"/>
</g>
<rect x="14.1743" y="5.745" width="7.65745" height="12.5099" fill="#F26122"/>
<path d="M14.9995 11.9999C14.9869 9.5651 16.0928 7.25925 17.9995 5.74497C14.7372 3.17946 10.051 3.552 7.23503 6.60072C4.41905 9.64944 4.41905 14.3504 7.23503 17.3991C10.051 20.4479 14.7372 20.8204 17.9995 18.2549C16.0928 16.7406 14.9869 14.4348 14.9995 11.9999Z" fill="#EA1D25"/>
<path fill-rule="evenodd" clip-rule="evenodd" d="M30.1041 16.6724V16.9274H30.0591V16.6724H29.9541V16.6199H30.2166V16.6724H30.1041ZM30.6141 16.6199V16.9274H30.5616V16.6949L30.4791 16.8974H30.4191L30.3291 16.6949V16.9274H30.2766V16.6199H30.3516L30.4491 16.8374L30.5391 16.6199H30.6141Z" fill="#F69E1E"/>
<path d="M30.8694 11.9999C30.8675 15.0444 29.1286 17.8209 26.3904 19.1518C23.6521 20.4826 20.3946 20.1344 17.9995 18.2549C21.4495 15.5384 22.047 10.5407 19.3345 7.08747C18.9457 6.58742 18.4974 6.13661 17.9995 5.74498C20.3946 3.86549 23.6521 3.5173 26.3904 4.84811C29.1286 6.17893 30.8675 8.95545 30.8694 11.9999Z" fill="#F69E1E"/>
</svg>
