<svg xmlns="http://www.w3.org/2000/svg" width="22" height="23" fill="none" viewBox="0 0 22 23">
    <path fill="#F0AD4E" d="M11 .36C4.923.36 0 5.345 0 11.5c0 6.154 4.923 11.14 11 11.14s11-4.986 11-11.14C22 5.346 17.077.36 11 .36zm0 4.312c2.156 0 3.903 1.77 3.903 3.953S13.156 12.578 11 12.578c-2.156 0-3.903-1.77-3.903-3.953S8.844 4.672 11 4.672zm0 15.453c-2.604 0-4.937-1.195-6.498-3.064.834-1.59 2.466-2.686 4.369-2.686.106 0 .213.018.315.05.576.188 1.18.31 1.814.31.634 0 1.242-.122 1.814-.31.102-.032.209-.05.315-.05 1.903 0 3.535 1.096 4.369 2.686-1.561 1.87-3.894 3.064-6.498 3.064z"/>
</svg>
