<svg width="36" height="24" viewBox="0 0 36 24" fill="none" xmlns="http://www.w3.org/2000/svg">
<rect width="35.9998" height="23.9998" rx="4" fill="#2A2A6C"/>
<path fill-rule="evenodd" clip-rule="evenodd" d="M22.7626 13.2524C22.7672 12.1088 21.8241 11.6149 21.0922 11.2316C20.6288 10.989 20.2501 10.7906 20.2501 10.4999C20.2501 10.2524 20.4901 9.98991 21.0001 9.92241C21.6071 9.86236 22.219 9.96866 22.7701 10.2299L23.0851 8.72992C22.5478 8.52844 21.979 8.42432 21.4051 8.42242C19.6351 8.42242 18.4052 9.36742 18.4052 10.7174C18.4052 11.7149 19.2977 12.2699 19.9726 12.5999C20.6476 12.9299 20.9101 13.1624 20.9026 13.4624C20.9026 13.9274 20.3476 14.1374 19.8301 14.1449C19.1918 14.1531 18.5619 13.9982 18.0002 13.6949L17.6777 15.1949C18.3133 15.443 18.9903 15.5677 19.6726 15.5624C21.5551 15.5624 22.7926 14.6324 22.8001 13.1924L22.7626 13.2524ZM17.8949 8.5424L16.3949 15.4799H14.5949L16.0949 8.5424H17.8949ZM25.4398 13.0424L26.3848 10.4399L26.9323 13.0424H25.4398ZM29.1076 15.5024H27.4426L27.2251 14.4674H24.9676L24.6001 15.5024H22.7101L25.4026 9.07492C25.5267 8.76911 25.8226 8.56794 26.1526 8.56493H27.6526L29.1076 15.5024ZM12.4576 15.4574L15.3676 8.51993H13.4176L11.5501 13.2374L10.8001 9.22493C10.7337 8.81719 10.3807 8.51825 9.9676 8.51993H6.91512L6.87012 8.72243C7.48237 8.84222 8.07706 9.03877 8.64011 9.30743C8.87992 9.42018 9.04244 9.65112 9.0676 9.91493L10.5001 15.4574H12.4576Z" fill="white"/>
</svg>
