<svg xmlns="http://www.w3.org/2000/svg" width="50" height="50" fill="none" viewBox="0 0 50 50">
    <path fill="#AFAFAF" d="M40.927 0H8.67C7.335 0 6.25 1.085 6.25 2.42v41.935c0 1.106.75 2.03 1.765 2.318L8.846 50h6.098l.807-3.226h18.095L34.652 50h6.099l.832-3.327c1.014-.288 1.764-1.212 1.764-2.318V2.419C43.347 1.085 42.26 0 40.927 0zm.807 2.42v39.515H40.12V1.613h.806c.445 0 .807.362.807.806zm-8.871 13.709h-11.29c-2.224 0-4.033 1.809-4.033 4.032v21.774H11.09V14.516h27.42v27.42h-1.614V20.16c0-2.223-1.809-4.032-4.032-4.032zm2.42 22.58h-16.13v-1.612h16.13v1.613zm-16.13-11.29h3.88c-.284.49-.483 1.034-.58 1.613h-3.3V27.42zm11.29 2.42c0 1.779-1.446 3.226-3.225 3.226-1.78 0-3.226-1.447-3.226-3.226 0-1.78 1.447-3.226 3.226-3.226s3.226 1.447 3.226 3.226zm-11.29.806h3.299c.097.58.297 1.123.581 1.613h-3.88v-1.613zm16.13 4.839h-16.13V33.87h5.395c.767.509 1.684.806 2.67.806s1.903-.297 2.67-.806h5.394v1.613zm0-3.226h-3.881c.284-.49.483-1.034.581-1.613h3.3v1.613zm0-3.226h-3.3c-.097-.579-.297-1.122-.58-1.613h3.88v1.613zm0-3.226h-5.396c-.766-.508-1.683-.806-2.67-.806-.985 0-1.902.298-2.669.806h-5.395v-1.613h16.13v1.613zm0-3.225h-16.13v-1.613h16.13v1.613zm-15.981-3.226c.334-.936 1.22-1.613 2.27-1.613h11.29c1.05 0 1.938.677 2.272 1.613H19.302zM11.089 1.613h27.42v1.613h-27.42V1.613zm-2.42 0h.807v9.677h1.613V4.84h27.42v8.064H9.475v29.032H7.863V2.42c0-.444.362-.806.806-.806zm5.016 46.774h-3.58l-.403-1.613h4.386l-.403 1.613zm22.227 0l-.403-1.613h4.385l-.403 1.613h-3.579zm5.015-3.226H8.67c-.444 0-.806-.362-.806-.806v-.807h25.806v-1.613H19.153v-1.612h16.13v3.225h6.45v.807c0 .444-.361.806-.806.806z"/>
    <path fill="#AFAFAF" d="M36.895 6.452H22.379v4.838h14.516V6.452zm-1.613 3.225h-11.29V8.065h11.29v1.612zM14.315 6.452h-1.613v1.613h1.613V6.452zM17.54 6.452h-1.613v1.613h1.613V6.452zM20.766 6.452h-1.613v1.613h1.613V6.452zM14.315 9.677h-1.613v1.613h1.613V9.677zM17.54 9.677h-1.613v1.613h1.613V9.677zM20.766 9.677h-1.613v1.613h1.613V9.677zM15.928 17.742h-3.226v1.613h3.226v-1.613zM15.928 20.968h-3.226v1.613h3.226v-1.613zM15.928 24.194h-3.226v1.612h3.226v-1.613zM15.928 27.42h-3.226v1.612h3.226V27.42z"/>
</svg>
