<svg width="35" height="46" viewBox="0 0 35 46" fill="none" xmlns="http://www.w3.org/2000/svg">
<path d="M32.6532 0H2.97581C1.74865 0 0.75 0.998645 0.75 2.22581V40.8065C0.75 41.8236 1.44 42.6739 2.37335 42.9388L3.13829 46H8.74881L9.49074 43.0323H26.1383L26.8802 46H32.4907L33.2564 42.9388C34.189 42.6739 34.879 41.8236 34.879 40.8065V2.22581C34.879 0.998645 33.8804 0 32.6532 0ZM33.3952 2.22581V38.5806H31.9113V1.48387H32.6532C33.062 1.48387 33.3952 1.817 33.3952 2.22581ZM25.2339 14.8387H14.8468C12.8013 14.8387 11.1371 16.5029 11.1371 18.5484V38.5806H5.20161V13.3548H30.4274V38.5806H28.9435V18.5484C28.9435 16.5029 27.2794 14.8387 25.2339 14.8387ZM27.4597 35.6129H12.621V34.129H27.4597V35.6129ZM12.621 25.2258H16.1912C15.9293 25.6769 15.746 26.177 15.6562 26.7097H12.621V25.2258ZM23.0081 27.4516C23.0081 29.0883 21.677 30.4194 20.0403 30.4194C18.4036 30.4194 17.0726 29.0883 17.0726 27.4516C17.0726 25.8149 18.4036 24.4839 20.0403 24.4839C21.677 24.4839 23.0081 25.8149 23.0081 27.4516ZM12.621 28.1935H15.6555C15.7453 28.7263 15.9293 29.2263 16.1904 29.6774H12.621V28.1935ZM27.4597 32.6452H12.621V31.1613H17.5845C18.2894 31.6295 19.1329 31.9032 20.0403 31.9032C20.9477 31.9032 21.7913 31.6295 22.4961 31.1613H27.4597V32.6452ZM27.4597 29.6774H23.8895C24.1514 29.2263 24.3346 28.7263 24.4244 28.1935H27.4597V29.6774ZM27.4597 26.7097H24.4252C24.3354 26.177 24.1514 25.6769 23.8902 25.2258H27.4597V26.7097ZM27.4597 23.7419H22.4961C21.7913 23.2738 20.9477 23 20.0403 23C19.1329 23 18.2894 23.2738 17.5845 23.7419H12.621V22.2581H27.4597V23.7419ZM27.4597 20.7742H12.621V19.2903H27.4597V20.7742ZM12.7575 17.8065C13.0646 16.9451 13.8808 16.3226 14.8468 16.3226H25.2339C26.1999 16.3226 27.016 16.9451 27.3232 17.8065H12.7575ZM5.20161 1.48387H30.4274V2.96774H5.20161V1.48387ZM2.97581 1.48387H3.71774V10.3871H5.20161V4.45161H30.4274V11.871H3.71774V38.5806H2.23387V2.22581C2.23387 1.817 2.567 1.48387 2.97581 1.48387ZM7.5899 44.5161H4.29719L3.92623 43.0323H7.96087L7.5899 44.5161ZM28.0391 44.5161L27.6682 43.0323H31.7028L31.3318 44.5161H28.0391ZM32.6532 41.5484H2.97581C2.567 41.5484 2.23387 41.2153 2.23387 40.8065V40.0645H25.9758V38.5806H12.621V37.0968H27.4597V40.0645H33.3952V40.8065C33.3952 41.2153 33.062 41.5484 32.6532 41.5484Z" fill="#AFAFAF"/>
</svg>
