<svg width="40" height="40" viewBox="0 0 40 40" fill="none" xmlns="http://www.w3.org/2000/svg">
<path d="M3.30776 22.8534C1.92657 22.8534 0.799805 21.7271 0.799805 20.3466V4.10679C0.799805 2.72622 1.92657 1.59998 3.30776 1.59998H30.1827H32.0584C33.4396 1.59998 34.5663 2.76256 34.5663 4.14312V16.4H33.2942V4.10679C33.2942 3.41651 32.749 2.83522 32.0584 2.83522H29.7825H29.5504H3.30776C2.61716 2.83522 2.07196 3.38017 2.07196 4.07046V20.3102C2.07196 21.0005 2.61716 21.5455 3.30776 21.5455H5.9998V22.8534H3.30776Z" fill="#AFAFAF"/>
<path d="M23.3167 12.8624H4.56152V14.0977H23.3167V12.8624Z" fill="#AFAFAF"/>
<path d="M28.4 9.91998C29.2395 9.91998 29.92 9.23945 29.92 8.39998C29.92 7.5605 29.2395 6.87998 28.4 6.87998C27.972 6.87998 27.5852 7.05692 27.309 7.34166L26.4 6.44038C26.9082 5.92176 27.6165 5.59998 28.4 5.59998C29.9464 5.59998 31.2 6.85358 31.2 8.39998C31.2 9.94637 29.9464 11.2 28.4 11.2C27.5508 11.2 26.7899 10.8219 26.2764 10.2249L27.309 9.45829C27.5852 9.74303 27.972 9.91998 28.4 9.91998Z" fill="#AFAFAF"/>
<path fill-rule="evenodd" clip-rule="evenodd" d="M25.1999 9.91998C26.0394 9.91998 26.7199 9.23945 26.7199 8.39998C26.7199 7.5605 26.0394 6.87998 25.1999 6.87998C24.3604 6.87998 23.6799 7.5605 23.6799 8.39998C23.6799 9.23945 24.3604 9.91998 25.1999 9.91998ZM25.1999 11.2C26.7463 11.2 27.9999 9.94637 27.9999 8.39998C27.9999 6.85358 26.7463 5.59998 25.1999 5.59998C23.6535 5.59998 22.3999 6.85358 22.3999 8.39998C22.3999 9.94637 23.6535 11.2 25.1999 11.2Z" fill="#AFAFAF"/>
<path fill-rule="evenodd" clip-rule="evenodd" d="M36.9676 17.2H7.99961C7.33687 17.2 6.79961 17.7373 6.79961 18.4V34.856C6.79961 35.5187 7.33687 36.056 7.99961 36.056H36.9676C37.6304 36.056 38.1676 35.5187 38.1676 34.856V18.4C38.1676 17.7373 37.6304 17.2 36.9676 17.2ZM7.99961 16C6.67413 16 5.59961 17.0745 5.59961 18.4V34.856C5.59961 36.1815 6.67413 37.256 7.99961 37.256H36.9676C38.2931 37.256 39.3676 36.1815 39.3676 34.856V18.4C39.3676 17.0745 38.2931 16 36.9676 16H7.99961Z" fill="#AFAFAF"/>
<path d="M35.2125 19.2H6.39941V20.4352H35.2125V19.2Z" fill="#AFAFAF"/>
<path d="M38.8939 19.2H34.5322V20.4352H38.8939V19.2Z" fill="#AFAFAF"/>
<path d="M38.8938 24.2135H6.39941V25.4487H38.8938V24.2135Z" fill="#AFAFAF"/>
<path d="M28.2805 27.9556H9.52539V29.1908H28.2805V27.9556Z" fill="#AFAFAF"/>
<path d="M19.5209 30.4624H9.52539V31.6976H19.5209V30.4624Z" fill="#AFAFAF"/>
<path d="M30.788 27.9556H29.5527V29.1908H30.788V27.9556Z" fill="#AFAFAF"/>
<path d="M33.2597 27.9556H32.0244V29.1908H33.2597V27.9556Z" fill="#AFAFAF"/>
<path d="M35.7675 27.9556H34.5322V29.1908H35.7675V27.9556Z" fill="#AFAFAF"/>
</svg>
