<svg xmlns="http://www.w3.org/2000/svg" width="50" height="50" fill="none" viewBox="0 0 50 50">
    <path fill="#AFAFAF" d="M47.58 6H2.42C1.084 6 0 7.085 0 8.42v32.257c0 1.334 1.085 2.42 2.42 2.42h45.16c1.334 0 2.42-1.086 2.42-2.42V8.42C50 7.085 48.914 6 47.58 6zm.807 2.42v6.924l-7.73-7.731h6.924c.444 0 .806.362.806.806zM2.42 7.612h6.925l-7.731 7.73V8.42c0-.444.362-.806.806-.806zm-.806 33.064v-6.924l7.73 7.73H2.42c-.444 0-.806-.36-.806-.806zm10.011.807L1.613 31.473V17.624L11.624 7.613h5.825C10.976 10.51 6.452 17.009 6.452 24.548c0 7.54 4.524 14.038 10.997 16.936h-5.825zM25 7.613c9.339 0 16.935 7.597 16.935 16.935 0 9.338-7.596 16.936-16.935 16.936-9.339 0-16.935-7.598-16.935-16.936C8.065 15.21 15.66 7.613 25 7.613zm18.548 16.935c0-7.54-4.524-14.037-10.997-16.935h5.825l10.011 10.011v13.849l-10.011 10.01H32.55c6.473-2.897 10.997-9.395 10.997-16.935zm4.033 16.936h-6.925l7.731-7.73v6.923c0 .446-.362.807-.806.807z"/>
    <path fill="#AFAFAF" d="M45.968 10.839c.445 0 .806-.361.806-.807 0-.445-.361-.806-.806-.806-.446 0-.807.36-.807.806 0 .446.361.807.807.807zM4.032 10.839c.445 0 .806-.361.806-.807 0-.445-.36-.806-.806-.806-.445 0-.806.36-.806.806 0 .446.36.807.806.807zM4.032 39.871c.445 0 .806-.361.806-.806 0-.446-.36-.807-.806-.807-.445 0-.806.361-.806.806 0 .446.36.807.806.807zM45.968 39.871c.445 0 .806-.361.806-.806 0-.446-.361-.807-.806-.807-.446 0-.807.361-.807.806 0 .446.361.807.807.807zM22.58 24.548c0 1.334 1.086 2.42 2.42 2.42 1.334 0 2.42-1.086 2.42-2.42 0-1.333-1.086-2.419-2.42-2.419-1.334 0-2.42 1.085-2.42 2.42zm3.226 0c0 .445-.362.807-.806.807-.444 0-.806-.362-.806-.807 0-.444.362-.806.806-.806.444 0 .806.362.806.806z"/>
    <path fill="#AFAFAF" d="M12.194 28.58c.673 0 1.305-.26 1.78-.736 1.472-1.472 3.39-2.329 5.45-2.462.064.438.177.86.337 1.258-2.42.745-4.615 2.06-6.396 3.841-.547.548-.85 1.276-.85 2.051 0 .775.303 1.504.85 2.051l1.872 1.872c.49.49 1.135.735 1.78.735s1.29-.245 1.78-.735c.475-.476.738-1.108.738-1.78 0-2.082.751-4.045 2.113-5.595.348.258.724.48 1.126.655-1.184 2.237-1.806 4.717-1.806 7.235 0 1.6 1.3 2.901 2.9 2.901h2.647c1.388 0 2.517-1.129 2.517-2.517 0-.663-.268-1.311-.737-1.78-1.472-1.472-2.328-3.39-2.461-5.449.437-.065.859-.178 1.258-.338.746 2.42 2.06 4.615 3.84 6.396.548.548 1.277.85 2.05.85.775 0 1.504-.302 2.052-.85l1.87-1.87c.476-.476.739-1.108.739-1.78 0-.673-.263-1.306-.738-1.78-.475-.476-1.108-.738-1.78-.738-2.082 0-4.044-.751-5.595-2.113.258-.348.481-.724.654-1.126 2.238 1.182 4.72 1.805 7.238 1.805 1.6 0 2.9-1.301 2.9-2.901v-2.647c0-1.388-1.129-2.517-2.517-2.517-.672 0-1.304.262-1.78.737-1.471 1.472-3.39 2.328-5.449 2.462-.065-.438-.178-.86-.338-1.259 2.42-.745 4.616-2.06 6.397-3.84.547-.548.85-1.276.85-2.052 0-.774-.302-1.503-.85-2.05l-1.871-1.871c-.951-.951-2.61-.951-3.56 0-.476.475-.738 1.107-.738 1.78 0 2.083-.752 4.045-2.114 5.595-.347-.258-.723-.48-1.126-.654 1.184-2.239 1.806-4.72 1.806-7.237 0-1.6-1.3-2.901-2.9-2.901h-2.648c-1.387 0-2.516 1.129-2.516 2.517 0 .672.262 1.305.737 1.78 1.471 1.471 2.328 3.39 2.461 5.449-.437.065-.859.178-1.258.338-.745-2.42-2.06-4.615-3.841-6.396-1.095-1.095-3.007-1.096-4.102 0l-1.87 1.87c-.477.476-.739 1.109-.739 1.781 0 .672.262 1.305.738 1.78.475.475 1.107.737 1.78.737 2.082 0 4.044.752 5.594 2.114-.258.348-.48.723-.654 1.126-2.237-1.183-4.718-1.806-7.236-1.806-1.6 0-2.9 1.301-2.9 2.901v2.647c0 1.388 1.128 2.517 2.516 2.517zm5.727 6.095c0 .242-.095.469-.265.64-.353.353-.925.353-1.279 0l-1.871-1.872c-.244-.244-.378-.566-.378-.91 0-.345.134-.668.377-.911 1.611-1.61 3.6-2.796 5.793-3.46-1.54 1.819-2.377 4.1-2.377 6.513zm9.498 2.68c0 .497-.405.903-.904.903h-2.647c-.71 0-1.287-.577-1.287-1.288 0-2.276.567-4.522 1.648-6.543.2 2.375 1.22 4.583 2.925 6.288.168.168.265.401.265.64zm8.346-5.463c.171.17.266.397.266.64 0 .241-.095.468-.266.639l-1.872 1.871c-.486.487-1.334.487-1.82 0-1.61-1.61-2.797-3.6-3.462-5.793 1.821 1.539 4.103 2.378 6.515 2.378.242 0 .468.095.64.265zm1.401-9.498c.17-.17.398-.265.64-.265.498 0 .904.406.904.904v2.647c0 .71-.578 1.288-1.288 1.288-2.278 0-4.523-.568-6.544-1.649 2.376-.199 4.583-1.22 6.288-2.925zm-5.087-7.971c0-.242.093-.47.264-.64.171-.17.399-.265.64-.265.242 0 .468.094.64.265l1.871 1.871c.244.244.378.567.378.91 0 .344-.134.668-.378.911-1.61 1.61-3.599 2.796-5.793 3.461 1.54-1.82 2.378-4.102 2.378-6.513zm-3.047 10.125c0 2.224-1.809 4.033-4.032 4.033-2.224 0-4.032-1.81-4.032-4.033 0-2.223 1.808-4.032 4.032-4.032 2.223 0 4.032 1.809 4.032 4.032zm-6.451-12.805c0-.499.405-.904.904-.904h2.646c.71 0 1.288.577 1.288 1.288 0 2.276-.568 4.521-1.648 6.543-.2-2.376-1.22-4.582-2.925-6.287-.171-.172-.265-.398-.265-.64zm-8.346 5.462c-.171-.171-.266-.398-.266-.64s.095-.468.266-.64l1.87-1.87c.244-.245.567-.378.911-.378.344 0 .667.133.91.377 1.61 1.61 2.797 3.6 3.462 5.793-1.821-1.54-4.104-2.378-6.515-2.378-.24 0-.467-.094-.638-.264zm-2.945 6.212c0-.71.578-1.288 1.288-1.288 2.277 0 4.523.568 6.544 1.648-2.376.2-4.583 1.22-6.287 2.925-.172.172-.399.266-.64.266-.5 0-.905-.406-.905-.904v-2.647z"/>
</svg>
