<svg width="46" height="35" viewBox="0 0 46 35" fill="none" xmlns="http://www.w3.org/2000/svg">
<path d="M43.7742 0.520004H2.22581C0.998645 0.520004 0 1.51865 0 2.74581V32.4232C0 33.6504 0.998645 34.649 2.22581 34.649H43.7742C45.0014 34.649 46 33.6504 46 32.4232V2.74581C46 1.51865 45.0014 0.520004 43.7742 0.520004ZM44.5161 2.74581V9.11607L37.4039 2.00388H43.7742C44.183 2.00388 44.5161 2.337 44.5161 2.74581ZM2.22581 2.00388H8.59606L1.48387 9.11607V2.74581C1.48387 2.337 1.817 2.00388 2.22581 2.00388ZM1.48387 32.4232V26.053L8.59606 33.1652H2.22581C1.817 33.1652 1.48387 32.8328 1.48387 32.4232ZM10.6943 33.1652L1.48387 23.9548V11.2143L10.6943 2.00388H16.0533C10.0977 4.66965 5.93548 10.6482 5.93548 17.5845C5.93548 24.5209 10.0977 30.4994 16.0533 33.1652H10.6943ZM23 2.00388C31.5916 2.00388 38.5806 8.99291 38.5806 17.5845C38.5806 26.1754 31.5916 33.1652 23 33.1652C14.4084 33.1652 7.41935 26.1754 7.41935 17.5845C7.41935 8.99291 14.4084 2.00388 23 2.00388ZM40.0645 17.5845C40.0645 10.6482 35.9023 4.66965 29.9467 2.00388H35.3057L44.5161 11.2143V23.9548L35.3057 33.1652H29.9467C35.9023 30.4994 40.0645 24.5209 40.0645 17.5845ZM43.7742 33.1652H37.4039L44.5161 26.053V32.4232C44.5161 32.8328 44.183 33.1652 43.7742 33.1652Z" fill="#AFAFAF"/>
</svg>
