<svg width="40" height="40" viewBox="0 0 40 40" fill="none" xmlns="http://www.w3.org/2000/svg">
<path d="M33.9921 38.8H6.08008V1.19995H27.7008L33.9921 7.49123V38.8ZM7.40922 37.4708H32.663V8.05243L27.1396 2.5291H7.40922V37.4708Z" fill="#AFAFAF"/>
<path d="M33.3125 8.43638H26.7554V1.84973H28.0845V7.10723H33.3125V8.43638Z" fill="#AFAFAF"/>
<path d="M20.0215 7.1073H10.5698V8.43644H20.0215V7.1073Z" fill="#AFAFAF"/>
<path d="M28.8826 21.2257H11.1606V22.5549H28.8826V21.2257Z" fill="#AFAFAF"/>
<path d="M29.6499 24.1793H10.4512V25.5085H29.6499V24.1793Z" fill="#AFAFAF"/>
<path d="M29.6499 27.1331H10.4512V28.4622H29.6499V27.1331Z" fill="#AFAFAF"/>
<path d="M29.6499 30.0867H10.4512V31.4158H29.6499V30.0867Z" fill="#AFAFAF"/>
<path d="M29.6499 33.0403H10.4512V34.3694H29.6499V33.0403Z" fill="#AFAFAF"/>
<path d="M29.5613 22.5548H10.5103V13.9006H11.8394V21.2257H28.2322V13.9006H29.5613V22.5548Z" fill="#AFAFAF"/>
<path d="M29.5613 14.5505H10.5103V10.0609H29.5613V14.5505ZM11.8394 13.2213H28.2322V11.3901H11.8394V13.2213Z" fill="#AFAFAF"/>
<path d="M25.1309 10.7402H23.8018V21.8755H25.1309V10.7402Z" fill="#AFAFAF"/>
<path d="M20.7002 10.7402H19.3711V21.8755H20.7002V10.7402Z" fill="#AFAFAF"/>
</svg>
