<svg width="28" height="38" viewBox="0 0 28 38" fill="none" xmlns="http://www.w3.org/2000/svg">
<path d="M27.9921 37.8H0.0800781V0.199951H21.7008L27.9921 6.49123V37.8ZM1.40922 36.4708H26.663V7.05243L21.1396 1.5291H1.40922V36.4708Z" fill="#AFAFAF"/>
<path d="M27.3125 7.43638H20.7554V0.849731H22.0845V6.10723H27.3125V7.43638Z" fill="#AFAFAF"/>
<path d="M14.0215 6.1073H4.56982V7.43644H14.0215V6.1073Z" fill="#AFAFAF"/>
<path d="M22.8826 20.2257H5.16064V21.5549H22.8826V20.2257Z" fill="#AFAFAF"/>
<path d="M23.6499 23.1793H4.45117V24.5085H23.6499V23.1793Z" fill="#AFAFAF"/>
<path d="M23.6499 26.1331H4.45117V27.4622H23.6499V26.1331Z" fill="#AFAFAF"/>
<path d="M23.6499 29.0867H4.45117V30.4158H23.6499V29.0867Z" fill="#AFAFAF"/>
<path d="M23.6499 32.0403H4.45117V33.3694H23.6499V32.0403Z" fill="#AFAFAF"/>
<path d="M23.5613 21.5548H4.51025V12.9006H5.8394V20.2257H22.2322V12.9006H23.5613V21.5548Z" fill="#AFAFAF"/>
<path d="M23.5613 13.5505H4.51025V9.06091H23.5613V13.5505ZM5.8394 12.2213H22.2322V10.3901H5.8394V12.2213Z" fill="#AFAFAF"/>
<path d="M19.1309 9.74023H17.8018V20.8755H19.1309V9.74023Z" fill="#AFAFAF"/>
<path d="M14.7002 9.74023H13.3711V20.8755H14.7002V9.74023Z" fill="#AFAFAF"/>
</svg>
