<svg xmlns="http://www.w3.org/2000/svg" width="50" height="50" fill="none" viewBox="0 0 50 50">
    <path fill="#AFAFAF" d="M50 20.064V12H0v8.064h2.42v1.613H0v4.84h2.42v1.612H0v8.064h18.548v-4.032c0-.445.363-.806.807-.806.444 0 .806.361.806.806v4.032H50V28.13h-2.42v-1.613H50v-4.839h-2.42v-1.613H50zM1.613 32.968h1.613v1.613H1.613v-1.613zm3.226 1.613v-1.613h12.097v1.613H4.839zm16.935-1.613h23.387v1.613H21.774v-1.613zm25 1.613v-1.613h1.613v1.613h-1.613zm.807-11.29h.806v1.612h-.806c-.89 0-1.613.724-1.613 1.613v1.613c0 .89.723 1.613 1.613 1.613h.806v1.613H21.626c-.334-.936-1.221-1.613-2.271-1.613-1.05 0-1.937.677-2.271 1.613H1.613v-1.613h.806c.89 0 1.613-.724 1.613-1.613v-1.613c0-.89-.723-1.613-1.613-1.613h-.806V23.29h.806c.89 0 1.613-.723 1.613-1.613v-1.613c0-.889-.723-1.612-1.613-1.612h-.806v-4.84h46.774v4.84h-.806c-.89 0-1.613.723-1.613 1.612v1.613c0 .89.723 1.613 1.613 1.613z"/>
    <path fill="#AFAFAF" d="M39.516 29.742h4.839V15.226h-4.839v14.516zm1.613-12.903h1.613v11.29h-1.613V16.84zM33.065 29.742h4.838V15.226h-4.838v14.516zm1.612-12.903h1.613v11.29h-1.613V16.84zM26.613 29.742h4.838V15.226h-4.838v14.516zm1.613-12.903h1.613v11.29h-1.613V16.84zM5.645 23.29H25v-8.064H5.645v8.064zm1.613-6.451h16.129v4.838H7.257V16.84z"/>
    <path fill="#AFAFAF" d="M21.774 18.452H8.871v1.612h12.903v-1.612zM8.87 24.903H5.646v1.613h3.226v-1.613zM13.71 24.903h-3.226v1.613h3.226v-1.613zM18.549 24.903h-3.226v1.613h3.226v-1.613zM8.87 28.129H5.646v1.613h3.226v-1.613zM13.71 28.129h-3.226v1.613h3.226v-1.613zM23.387 24.903H20.16v1.613h3.226v-1.613z"/>
</svg>
