<svg width="46" height="23" viewBox="0 0 46 23" fill="none" xmlns="http://www.w3.org/2000/svg">
<path d="M46 7.45936V0.0400085H0V7.45936H2.22581V8.94323H0V13.3948H2.22581V14.8787H0V22.2981H17.0645V18.5884C17.0645 18.1788 17.3976 17.8465 17.8065 17.8465C18.2153 17.8465 18.5484 18.1788 18.5484 18.5884V22.2981H46V14.8787H43.7742V13.3948H46V8.94323H43.7742V7.45936H46ZM1.48387 19.3303H2.96774V20.8142H1.48387V19.3303ZM4.45161 20.8142V19.3303H15.5806V20.8142H4.45161ZM20.0323 19.3303H41.5484V20.8142H20.0323V19.3303ZM43.0323 20.8142V19.3303H44.5161V20.8142H43.0323ZM43.7742 10.4271H44.5161V11.911H43.7742C42.9558 11.911 42.2903 12.5765 42.2903 13.3948V14.8787C42.2903 15.6971 42.9558 16.3626 43.7742 16.3626H44.5161V17.8465H19.8957C19.5886 16.9851 18.7725 16.3626 17.8065 16.3626C16.8405 16.3626 16.0243 16.9851 15.7172 17.8465H1.48387V16.3626H2.22581C3.04416 16.3626 3.70968 15.6971 3.70968 14.8787V13.3948C3.70968 12.5765 3.04416 11.911 2.22581 11.911H1.48387V10.4271H2.22581C3.04416 10.4271 3.70968 9.76159 3.70968 8.94323V7.45936C3.70968 6.64101 3.04416 5.97549 2.22581 5.97549H1.48387V1.52388H44.5161V5.97549H43.7742C42.9558 5.97549 42.2903 6.64101 42.2903 7.45936V8.94323C42.2903 9.76159 42.9558 10.4271 43.7742 10.4271Z" fill="#AFAFAF"/>
</svg>
