<svg xmlns="http://www.w3.org/2000/svg" width="50" height="50" fill="none" viewBox="0 0 50 50">
    <path fill="#AFAFAF" d="M50 19.71h-1.613V8.42c0-1.335-1.085-2.42-2.42-2.42H4.033c-1.334 0-2.42 1.085-2.42 2.42v4.032H0v6.451h1.613v3.226H0v6.452h1.613v4.838h.806c1.334 0 2.42 1.086 2.42 2.42 0 1.334-1.086 2.42-2.42 2.42h-.806v2.418c0 1.334 1.085 2.42 2.42 2.42h41.935c1.334 0 2.42-1.086 2.42-2.42v-11.29H50V19.71zM1.613 14.064h1.613v3.226H1.613v-3.225zm0 9.678h1.613v3.226H1.613v-3.226zm45.161 16.935c0 .445-.362.807-.806.807H4.032c-.444 0-.806-.362-.806-.807v-.888c1.838-.374 3.226-2.003 3.226-3.95 0-1.948-1.388-3.577-3.226-3.951V28.58h1.613v-6.452H3.226v-3.226h1.613v-6.451H3.226V8.419c0-.444.362-.806.806-.806h41.936c.444 0 .806.362.806.806v11.29h-1.613v9.678h1.613v11.29zm1.613-12.903h-1.613v-6.451h1.613v6.451z"/>
    <path fill="#AFAFAF" d="M32.258 14.065h-1.613v-1.613h-1.613v1.613H27.42v-1.613h-1.612v1.613h-1.613v-1.613H22.58v1.613h-1.613v1.612h-1.613v1.613h1.613v1.613h-1.613v1.613h1.613v1.613h-1.613v1.613h1.613v1.613h1.613v1.613h1.613v-1.613h1.613v1.613h1.613v-1.613h1.612v1.613h1.613v-1.613h1.613v-1.613h1.613v-1.613h-1.613v-1.613h1.613v-1.613h-1.613V17.29h1.613v-1.613h-1.613v-1.612zm-1.613 9.677h-8.064v-8.065h8.064v8.065z"/>
    <path fill="#AFAFAF" d="M16.129 30.194h20.968V9.226H16.129v20.968zm1.613-19.355h17.742V28.58H17.742V10.839z"/>
    <path fill="#AFAFAF" d="M29.032 17.29h-4.839v1.613h4.84V17.29zM29.032 20.516h-4.839v1.613h4.84v-1.613zM43.548 9.226h-1.613V39.87h1.613V9.226zM40.322 9.226H38.71V39.87h1.613V9.226zM9.677 9.226H6.452v1.613h3.225V9.226zM14.516 9.226H11.29v1.613h3.226V9.226zM9.677 12.452H6.452v1.613h3.225v-1.613zM14.516 12.452H11.29v1.613h3.226v-1.613zM9.677 22.129c1.78 0 3.226-1.447 3.226-3.226s-1.447-3.226-3.226-3.226-3.225 1.447-3.225 3.226c0 1.78 1.446 3.226 3.225 3.226zm0-4.839c.89 0 1.613.724 1.613 1.613 0 .89-.723 1.613-1.613 1.613-.889 0-1.612-.723-1.612-1.613s.723-1.613 1.612-1.613zM14.516 23.742H6.452v6.452h8.064v-6.452zm-1.613 4.839H8.065v-3.226h4.838v3.226zM12.903 39.871h24.194v-8.065H12.903v8.065zm1.613-3.226h1.613v1.613h-1.613v-1.613zm9.678 0h1.613v1.613h-1.613v-1.613zm-1.613 1.613h-1.613v-1.613h1.613v1.613zm4.838-1.613h1.613v1.613H27.42v-1.613zm3.226 0h1.613v1.613h-1.613v-1.613zm0-1.613V33.42h1.613v1.613h-1.613zm-1.613 0H27.42V33.42h1.613v1.613zm-3.226 0h-1.612V33.42h1.613v1.613zm-3.225 0h-1.613V33.42h1.613v1.613zm-3.226 0h-1.613V33.42h1.613v1.613zm0 1.613v1.613h-1.613v-1.613h1.613zm14.516 1.613v-1.613h1.613v1.613h-1.613zm1.613-3.226h-1.613V33.42h1.613v1.613zM16.129 33.42v1.613h-1.613V33.42h1.613zM11.29 31.806H8.064v1.613h3.226v-1.612zM11.29 35.032H8.064v1.613h3.226v-1.613zM11.29 38.258H8.064v1.613h3.226v-1.613z"/>
</svg>
