<svg width="46" height="35" viewBox="0 0 46 35" fill="none" xmlns="http://www.w3.org/2000/svg">
<path d="M46 13.1329H44.5161V2.7458C44.5161 1.51863 43.5175 0.519989 42.2903 0.519989H3.70968C2.48252 0.519989 1.48387 1.51863 1.48387 2.7458V6.45547H0V12.391H1.48387V15.3587H0V21.2942H1.48387V25.7458H2.22581C3.45297 25.7458 4.45161 26.7444 4.45161 27.9716C4.45161 29.1988 3.45297 30.1974 2.22581 30.1974H1.48387V32.4232C1.48387 33.6504 2.48252 34.649 3.70968 34.649H42.2903C43.5175 34.649 44.5161 33.6504 44.5161 32.4232V22.0361H46V13.1329ZM1.48387 7.93934H2.96774V10.9071H1.48387V7.93934ZM1.48387 16.8426H2.96774V19.8103H1.48387V16.8426ZM43.0323 32.4232C43.0323 32.832 42.6991 33.1651 42.2903 33.1651H3.70968C3.30087 33.1651 2.96774 32.832 2.96774 32.4232V31.6063C4.65861 31.2621 5.93548 29.7634 5.93548 27.9716C5.93548 26.1798 4.65861 24.6811 2.96774 24.3369V21.2942H4.45161V15.3587H2.96774V12.391H4.45161V6.45547H2.96774V2.7458C2.96774 2.33699 3.30087 2.00386 3.70968 2.00386H42.2903C42.6991 2.00386 43.0323 2.33699 43.0323 2.7458V13.1329H41.5484V22.0361H43.0323V32.4232ZM44.5161 20.5522H43.0323V14.6168H44.5161V20.5522Z" fill="#AFAFAF"/>
</svg>
