<svg xmlns="http://www.w3.org/2000/svg" width="50" height="50" fill="none" viewBox="0 0 50 50">
    <path fill="#AFAFAF" d="M37.205 40.323l2.892-2.892V12.569l-2.892-2.892H12.344L9.452 12.57v24.862l2.892 2.892h24.86zm-26.14-27.086l1.946-1.947h23.526l1.947 1.947v23.526l-1.947 1.947H13.011l-1.946-1.947V13.237z"/>
    <path fill="#AFAFAF" d="M5.892 0L3 2.892V50h43.548V0H5.892zm39.044 48.387H4.612V3.56L6.56 1.613h38.375v46.774z"/>
    <path fill="#AFAFAF" d="M7.032 4.839c.445 0 .806-.361.806-.807 0-.445-.36-.806-.806-.806-.445 0-.806.36-.806.806 0 .446.36.807.806.807zM42.516 4.839c.445 0 .806-.361.806-.807 0-.445-.36-.806-.806-.806-.445 0-.806.36-.806.806 0 .446.36.807.806.807zM7.032 46.774c.445 0 .806-.36.806-.806 0-.446-.36-.807-.806-.807-.445 0-.806.361-.806.807 0 .445.36.806.806.806zM42.516 46.774c.445 0 .806-.36.806-.806 0-.446-.36-.807-.806-.807-.445 0-.806.361-.806.807 0 .445.36.806.806.806zM14.29 35.484h1.613v1.613h1.613v-1.613h1.613v1.613h1.613v-1.613h1.613v1.613h1.613v-1.613h1.613v1.613h1.612v-1.613h1.613v1.613h1.613v-1.613h1.613v1.613h1.613v-1.613h1.613V33.87h1.613v-1.613h-1.613v-1.613h1.613v-1.613h-1.613V27.42h1.613v-1.613h-1.613v-1.613h1.613v-1.612h-1.613v-1.613h1.613v-1.613h-1.613v-1.613h1.613v-1.613h-1.613v-1.613h-1.613v-1.613h-1.613v1.613H30.42v-1.613h-1.613v1.613h-1.613v-1.613H25.58v1.613h-1.612v-1.613h-1.613v1.613h-1.613v-1.613h-1.613v1.613h-1.613v-1.613h-1.613v1.613H14.29v1.613h-1.613v1.613h1.613v1.613h-1.613v1.613h1.613v1.613h-1.613v1.613h1.613v1.612h-1.613v1.613h1.613v1.613h-1.613v1.613h1.613v1.613h-1.613v1.613h1.613v1.613zm1.613-19.355h17.742v17.742H15.903V16.129z"/>
    <path fill="#AFAFAF" d="M21.273 24.306c.3.897 1.136 1.5 2.082 1.5h2.839c.946 0 1.782-.603 2.081-1.5l1.226-3.675c.075-.224.113-.458.113-.695 0-1.21-.985-2.194-2.195-2.194h-5.29c-1.209 0-2.194.985-2.194 2.194 0 .237.038.47.113.695l1.226 3.675zm.857-4.951h5.29c.32 0 .58.26.58.581 0 .063-.01.125-.03.184l-1.226 3.677c-.079.237-.3.397-.55.397h-2.84c-.25 0-.47-.16-.55-.398l-1.226-3.676c-.02-.06-.03-.122-.03-.184 0-.32.26-.581.582-.581zM19.129 27.42h-1.613v1.612h1.613V27.42zM32.032 27.42h-11.29v1.612h11.29V27.42zM32.032 30.645H30.42v1.613h1.613v-1.613zM28.806 30.645h-11.29v1.613h11.29v-1.613zM11.065 3.226H9.452v1.613h1.613V3.226zM14.29 3.226h-1.613v1.613h1.613V3.226zM17.516 3.226h-1.613v1.613h1.613V3.226zM20.742 3.226h-1.613v1.613h1.613V3.226zM23.968 3.226h-1.613v1.613h1.613V3.226zM27.194 3.226H25.58v1.613h1.613V3.226zM30.42 3.226h-1.613v1.613h1.613V3.226zM33.645 3.226h-1.613v1.613h1.613V3.226zM36.871 3.226h-1.613v1.613h1.613V3.226zM40.097 3.226h-1.613v1.613h1.613V3.226zM11.065 45.161H9.452v1.613h1.613v-1.613zM14.29 45.161h-1.613v1.613h1.613v-1.613zM17.516 45.161h-1.613v1.613h1.613v-1.613zM20.742 45.161h-1.613v1.613h1.613v-1.613zM23.968 45.161h-1.613v1.613h1.613v-1.613zM27.194 45.161H25.58v1.613h1.613v-1.613zM30.42 45.161h-1.613v1.613h1.613v-1.613zM33.645 45.161h-1.613v1.613h1.613v-1.613zM36.871 45.161h-1.613v1.613h1.613v-1.613zM40.097 45.161h-1.613v1.613h1.613v-1.613zM21.549 6.452h-3.226v1.613h3.226V6.452zM26.387 6.452H23.16v1.613h3.226V6.452zM31.226 6.452H28v1.613h3.226V6.452zM26.387 41.935H23.16v1.613h3.226v-1.613zM31.226 41.935H28v1.613h3.226v-1.613zM21.549 41.935h-3.226v1.613h3.226v-1.613zM43.322 41.935H41.71v1.613h1.613v-1.613zM43.322 38.71H41.71v1.613h1.613V38.71zM43.322 35.484H41.71v1.613h1.613v-1.613zM43.322 32.258H41.71v1.613h1.613v-1.613zM43.322 29.032H41.71v1.613h1.613v-1.613zM43.322 25.806H41.71v1.613h1.613v-1.613zM43.322 22.58H41.71v1.614h1.613V22.58zM43.322 19.355H41.71v1.613h1.613v-1.613zM43.322 16.129H41.71v1.613h1.613v-1.613zM43.322 12.903H41.71v1.613h1.613v-1.613zM43.322 9.677H41.71v1.613h1.613V9.677zM43.322 6.452H41.71v1.613h1.613V6.452zM7.838 41.935H6.226v1.613h1.612v-1.613zM7.838 38.71H6.226v1.613h1.612V38.71zM7.838 35.484H6.226v1.613h1.612v-1.613zM7.838 32.258H6.226v1.613h1.612v-1.613zM7.838 29.032H6.226v1.613h1.612v-1.613zM7.838 25.806H6.226v1.613h1.612v-1.613zM7.838 22.58H6.226v1.614h1.612V22.58zM7.838 19.355H6.226v1.613h1.612v-1.613zM7.838 16.129H6.226v1.613h1.612v-1.613zM7.838 12.903H6.226v1.613h1.612v-1.613zM7.838 9.677H6.226v1.613h1.612V9.677zM7.838 6.452H6.226v1.613h1.612V6.452z"/>
</svg>
